<svg id="Layer_1" data-name="Layer 1" xmlns="http://www.w3.org/2000/svg" viewBox="0 0 161 150"><defs><style>.cls-1{isolation:isolate;}.cls-2{fill:#656464;}.cls-3{fill:#e61e27;}.cls-4{fill:#646564;}</style></defs><g class="cls-1"><path class="cls-2" d="M31.606,120.71459v1.91357H23.9331v-1.91357H26.648V113.2307q0-.24464.00879-.49951c.00683-.16944.01562-.34229.02832-.51856l-1.791,1.48926a.93871.93871,0,0,1-.36719.1792.82409.82409,0,0,1-.33984.00488.79888.79888,0,0,1-.28223-.11328.75667.75667,0,0,1-.18847-.165l-.82032-1.10254,4.20411-3.563h2.13964v11.77247Z"/><path class="cls-2" d="M43.22705,115.7849a11.12343,11.12343,0,0,1-.38672,3.11084,6.41106,6.41106,0,0,1-1.06445,2.18213,4.27828,4.27828,0,0,1-1.60742,1.28174,4.98042,4.98042,0,0,1-4.001,0,4.19726,4.19726,0,0,1-1.59277-1.28174,6.454,6.454,0,0,1-1.05176-2.18213,12.87307,12.87307,0,0,1,0-6.21631,6.45434,6.45434,0,0,1,1.05176-2.17725A4.19387,4.19387,0,0,1,36.16748,109.22a4.98031,4.98031,0,0,1,4.001,0,4.27475,4.27475,0,0,1,1.60742,1.28222,6.4115,6.4115,0,0,1,1.06445,2.17725A11.07135,11.07135,0,0,1,43.22705,115.7849Zm-2.68652,0a11.72762,11.72762,0,0,0-.20215-2.394,4.92291,4.92291,0,0,0-.53321-1.48926,1.83635,1.83635,0,0,0-1.63964-.98,1.87474,1.87474,0,0,0-.87207.21679,1.93687,1.93687,0,0,0-.74415.76319,4.939,4.939,0,0,0-.52343,1.48926,14.61317,14.61317,0,0,0,0,4.79785,4.92917,4.92917,0,0,0,.52343,1.48925,1.93839,1.93839,0,0,0,.74415.76368,1.87474,1.87474,0,0,0,.87207.21679,1.83562,1.83562,0,0,0,1.63964-.98047,4.913,4.913,0,0,0,.53321-1.48925A11.78528,11.78528,0,0,0,40.54053,115.7849Z"/><path class="cls-2" d="M54.16064,115.7849a11.123,11.123,0,0,1-.38672,3.11084,6.41106,6.41106,0,0,1-1.06445,2.18213,4.2782,4.2782,0,0,1-1.60742,1.28174,4.98042,4.98042,0,0,1-4.001,0,4.19726,4.19726,0,0,1-1.59277-1.28174,6.454,6.454,0,0,1-1.05176-2.18213,12.87307,12.87307,0,0,1,0-6.21631,6.45434,6.45434,0,0,1,1.05176-2.17725A4.19387,4.19387,0,0,1,47.10107,109.22a4.98031,4.98031,0,0,1,4.001,0,4.27468,4.27468,0,0,1,1.60742,1.28222,6.4115,6.4115,0,0,1,1.06445,2.17725A11.071,11.071,0,0,1,54.16064,115.7849Zm-2.68652,0a11.72691,11.72691,0,0,0-.20215-2.394,4.92292,4.92292,0,0,0-.5332-1.48926,1.83635,1.83635,0,0,0-1.63965-.98,1.87477,1.87477,0,0,0-.87207.21679,1.93685,1.93685,0,0,0-.74414.76319,4.939,4.939,0,0,0-.52344,1.48926,14.61389,14.61389,0,0,0,0,4.79785,4.92916,4.92916,0,0,0,.52344,1.48925,1.93837,1.93837,0,0,0,.74414.76368,1.87477,1.87477,0,0,0,.87207.21679,1.83562,1.83562,0,0,0,1.63965-.98047,4.913,4.913,0,0,0,.5332-1.48925A11.78456,11.78456,0,0,0,51.47412,115.7849Z"/><path class="cls-2" d="M65.09424,115.7849a11.12343,11.12343,0,0,1-.38672,3.11084,6.41107,6.41107,0,0,1-1.06446,2.18213,4.2782,4.2782,0,0,1-1.60742,1.28174,4.9804,4.9804,0,0,1-4.001,0,4.19736,4.19736,0,0,1-1.59278-1.28174,6.45419,6.45419,0,0,1-1.05176-2.18213,12.8734,12.8734,0,0,1,0-6.21631,6.45453,6.45453,0,0,1,1.05176-2.17725A4.194,4.194,0,0,1,58.03467,109.22a4.98029,4.98029,0,0,1,4.001,0,4.27468,4.27468,0,0,1,1.60742,1.28222,6.41151,6.41151,0,0,1,1.06446,2.17725A11.07135,11.07135,0,0,1,65.09424,115.7849Zm-2.68653,0a11.72691,11.72691,0,0,0-.20215-2.394,4.92292,4.92292,0,0,0-.5332-1.48926,1.83635,1.83635,0,0,0-1.63965-.98,1.8748,1.8748,0,0,0-.87207.21679,1.93692,1.93692,0,0,0-.74414.76319,4.93929,4.93929,0,0,0-.52344,1.48926,14.61389,14.61389,0,0,0,0,4.79785,4.92943,4.92943,0,0,0,.52344,1.48925,1.93844,1.93844,0,0,0,.74414.76368,1.8748,1.8748,0,0,0,.87207.21679,1.83562,1.83562,0,0,0,1.63965-.98047,4.913,4.913,0,0,0,.5332-1.48925A11.78456,11.78456,0,0,0,62.40771,115.7849Z"/><path class="cls-2" d="M75.61279,117.24632h-3.582v3.81739H69.91943v-3.81739h-3.5625v-1.895h3.5625v-3.80761h2.11133v3.80761h3.582Z"/><path class="cls-2" d="M90.60888,108.57445v14.05371H89.00635a.60532.60532,0,0,1-.64063-.45264l-.2168-.84814a5.69157,5.69157,0,0,1-.61816.58447,3.98542,3.98542,0,0,1-.70215.457,3.58637,3.58637,0,0,1-.81055.29688,4.0322,4.0322,0,0,1-.94238.104,3.12363,3.12363,0,0,1-1.43262-.33008,3.21073,3.21073,0,0,1-1.126-.96631,4.754,4.754,0,0,1-.74024-1.55957,7.70957,7.70957,0,0,1-.26367-2.11181,6.61321,6.61321,0,0,1,.29688-2.01709,4.88284,4.88284,0,0,1,.84375-1.61133,3.93224,3.93224,0,0,1,1.31933-1.06543,3.78261,3.78261,0,0,1,1.71485-.38623,3.351,3.351,0,0,1,1.334.23535,3.56192,3.56192,0,0,1,.98535.64111v-5.02392Zm-2.60156,6.86182a2.07728,2.07728,0,0,0-.79687-.59375,2.44549,2.44549,0,0,0-.90918-.16944,2.01417,2.01417,0,0,0-.85742.17871,1.71346,1.71346,0,0,0-.665.561,2.82169,2.82169,0,0,0-.42871.97558,5.79712,5.79712,0,0,0-.15137,1.41358,6.58309,6.58309,0,0,0,.12305,1.37646,2.66264,2.66264,0,0,0,.35351.91407,1.37264,1.37264,0,0,0,.56055.50439,1.70425,1.70425,0,0,0,.73535.15576,2.24907,2.24907,0,0,0,1.1543-.27344,3.37276,3.37276,0,0,0,.88183-.77295Z"/><path class="cls-2" d="M94.84033,118.16966a3.06991,3.06991,0,0,0,.77832,1.99854,2.36157,2.36157,0,0,0,1.71094.63135,3.00812,3.00812,0,0,0,.92773-.12744,4.414,4.414,0,0,0,.68848-.28272q.29736-.15528.53711-.28271a1.01549,1.01549,0,0,1,.47558-.127.55642.55642,0,0,1,.47168.22608l.75391.94238a4.09,4.09,0,0,1-.91406.79639,4.89209,4.89209,0,0,1-1.03711.5,5.55764,5.55764,0,0,1-1.084.25439,8.27142,8.27142,0,0,1-1.05566.0708,5.30677,5.30677,0,0,1-1.89941-.335,4.30318,4.30318,0,0,1-1.53614-.98975,4.64459,4.64459,0,0,1-1.03222-1.626,6.205,6.205,0,0,1-.377-2.25244,5.32265,5.32265,0,0,1,.3252-1.86621,4.38854,4.38854,0,0,1,2.42773-2.55909,4.90929,4.90929,0,0,1,1.97852-.38183,4.84207,4.84207,0,0,1,1.7207.29687,3.81929,3.81929,0,0,1,1.35742.86231,3.89176,3.89176,0,0,1,.88575,1.39062,5.22328,5.22328,0,0,1,.31543,1.88037,3.24292,3.24292,0,0,1-.02832.48047.84633.84633,0,0,1-.09375.30176.34249.34249,0,0,1-.17872.15527.85269.85269,0,0,1-.293.04248Zm4.09082-1.54541a2.7152,2.7152,0,0,0-.1084-.773,1.79461,1.79461,0,0,0-.34375-.65039,1.664,1.664,0,0,0-.59375-.44775,2.03951,2.03951,0,0,0-.85742-.165,1.97329,1.97329,0,0,0-1.46094.52783,2.67452,2.67452,0,0,0-.68847,1.5083Z"/><path class="cls-2" d="M108.9126,114.90843a.75386.75386,0,0,1-.21192.231.53623.53623,0,0,1-.29687.0708.89611.89611,0,0,1-.38672-.09424q-.19776-.09448-.44238-.20263a4.86007,4.86007,0,0,0-.56055-.20264,2.55722,2.55722,0,0,0-.73047-.09424,1.61509,1.61509,0,0,0-.98047.25928.81113.81113,0,0,0-.34863.6831.6656.6656,0,0,0,.19726.49024,1.74643,1.74643,0,0,0,.52344.34424,6.30762,6.30762,0,0,0,.74024.273q.41454.12744.85253.27832a8.22358,8.22358,0,0,1,.85352.34863,3.00353,3.00353,0,0,1,.73926.49512,2.26416,2.26416,0,0,1,.52344.7163,2.35957,2.35957,0,0,1,.19824,1.01319,3.24772,3.24772,0,0,1-.25977,1.30517,2.85051,2.85051,0,0,1-.75879,1.03223,3.58463,3.58463,0,0,1-1.24414.67871,5.72134,5.72134,0,0,1-3.63769-.09912,5.82177,5.82177,0,0,1-.83008-.38184,3.65925,3.65925,0,0,1-.669-.47119l.60352-.9707a.70123.70123,0,0,1,.65918-.3584.83114.83114,0,0,1,.43359.11817c.13184.07861.28028.16357.44336.25439a3.71415,3.71415,0,0,0,.58008.25439,2.53364,2.53364,0,0,0,.834.11768,2.2086,2.2086,0,0,0,.6504-.08447,1.22837,1.22837,0,0,0,.44238-.231.92508.92508,0,0,0,.25-.33008.94.94,0,0,0,.08008-.38183.70917.70917,0,0,0-.20215-.52295,1.8311,1.8311,0,0,0-.52832-.35352,5.3112,5.3112,0,0,0-.749-.27344q-.4248-.12231-.8623-.27343a7.20914,7.20914,0,0,1-.8584-.35791,2.91843,2.91843,0,0,1-.74414-.52295,2.43823,2.43823,0,0,1-.52832-.77783,2.78941,2.78941,0,0,1-.20215-1.12159,2.84147,2.84147,0,0,1,.23535-1.1455,2.70676,2.70676,0,0,1,.707-.95655,3.50107,3.50107,0,0,1,1.17383-.65967,4.92129,4.92129,0,0,1,1.626-.24511,5.03775,5.03775,0,0,1,1.88476.33935,4.087,4.087,0,0,1,1.39454.88575Z"/><path class="cls-2" d="M114.20068,110.14867a1.43451,1.43451,0,0,1-.13183.61279,1.70043,1.70043,0,0,1-.35352.49951,1.60516,1.60516,0,0,1-.51855.33936,1.6514,1.6514,0,0,1-.63575.12256,1.53754,1.53754,0,0,1-.6084-.12256,1.5835,1.5835,0,0,1-.5039-.33936,1.65259,1.65259,0,0,1-.34375-.49951,1.47671,1.47671,0,0,1-.12793-.61279,1.50773,1.50773,0,0,1,.12793-.61768,1.637,1.637,0,0,1,.34375-.5039,1.58317,1.58317,0,0,1,.5039-.33936,1.53754,1.53754,0,0,1,.6084-.12256,1.6514,1.6514,0,0,1,.63575.12256,1.60483,1.60483,0,0,1,.51855.33936,1.68289,1.68289,0,0,1,.35352.5039A1.46449,1.46449,0,0,1,114.20068,110.14867Zm-.31055,2.76172v9.71777h-2.60156v-9.71777Z"/><path class="cls-2" d="M124.77588,113.2307v.95215a.49268.49268,0,0,1-.127.35791.82635.82635,0,0,1-.41992.19824l-.791.16016a3.00914,3.00914,0,0,1,.16015.98974,2.82847,2.82847,0,0,1-.29687,1.30518,2.98439,2.98439,0,0,1-.81543.98974,3.77277,3.77277,0,0,1-1.22559.63184,5.09192,5.09192,0,0,1-1.52734.22119,5.30306,5.30306,0,0,1-.9707-.08447q-.39552.24462-.39551.53711a.4115.4115,0,0,0,.26855.396,2.42228,2.42228,0,0,0,.707.17432q.438.052.999.06592t1.14062.061a9.194,9.194,0,0,1,1.14063.165,3.12934,3.12934,0,0,1,.999.38672,2.10141,2.10141,0,0,1,.707.71143,2.17792,2.17792,0,0,1,.26856,1.14062,2.7,2.7,0,0,1-.32032,1.2627,3.419,3.419,0,0,1-.92871,1.09375,4.82159,4.82159,0,0,1-1.49414.77295,6.4415,6.4415,0,0,1-2.0166.292,7.89961,7.89961,0,0,1-1.94727-.21192,4.58663,4.58663,0,0,1-1.36621-.56591,2.42335,2.42335,0,0,1-.80566-.81494,1.905,1.905,0,0,1-.26465-.96143,1.61861,1.61861,0,0,1,.39649-1.103,2.74965,2.74965,0,0,1,1.09277-.72558,1.68347,1.68347,0,0,1-.58887-.542,1.55525,1.55525,0,0,1-.22168-.87207,1.67538,1.67538,0,0,1,.31641-.91406,2.35418,2.35418,0,0,1,.97558-.80127,3.12752,3.12752,0,0,1-1.17871-1.06054,2.77178,2.77178,0,0,1-.43359-1.5503,2.859,2.859,0,0,1,.29687-1.31006,2.92172,2.92172,0,0,1,.8252-.99463,3.80437,3.80437,0,0,1,1.24414-.62695,5.34628,5.34628,0,0,1,1.55469-.2168,4.73179,4.73179,0,0,1,2.19629.49024Zm-2.582,9.79346a.56.56,0,0,0-.16114-.415,1.118,1.118,0,0,0-.42871-.2544,2.97079,2.97079,0,0,0-.63574-.13672q-.36768-.04248-.78223-.06591c-.27734-.01563-.5625-.02979-.8584-.04248q-.44238-.01832-.86718-.06592a1.97764,1.97764,0,0,0-.542.46679.95891.95891,0,0,0-.21192.60791.8332.8332,0,0,0,.47168.77295,2.28031,2.28031,0,0,0,.669.22119,5.57444,5.57444,0,0,0,1.03711.08008,5.88156,5.88156,0,0,0,1.084-.08447,2.34291,2.34291,0,0,0,.71582-.24072.91984.91984,0,0,0,.50977-.84326Zm-2.46094-5.61768a1.55744,1.55744,0,0,0,1.18359-.40527,1.46777,1.46777,0,0,0,.38184-1.04639,1.42179,1.42179,0,0,0-.38184-1.05078,1.6133,1.6133,0,0,0-1.18359-.38184,1.59206,1.59206,0,0,0-1.17774.38184,1.42715,1.42715,0,0,0-.377,1.05078,1.46688,1.46688,0,0,0,.38184,1.0415A1.52858,1.52858,0,0,0,119.73291,117.40648Z"/><path class="cls-2" d="M128.54638,114.04125a6.20265,6.20265,0,0,1,.60743-.51807,4.003,4.003,0,0,1,.66992-.40527,3.63783,3.63783,0,0,1,.76367-.26416,3.98726,3.98726,0,0,1,.89063-.09424,3.42011,3.42011,0,0,1,1.40429.27344,2.89256,2.89256,0,0,1,1.03223.76318,3.27019,3.27019,0,0,1,.63086,1.16894,4.96645,4.96645,0,0,1,.21289,1.48926v6.17383h-2.59277v-6.17383a1.89931,1.89931,0,0,0-.377-1.2583,1.372,1.372,0,0,0-1.1123-.44775,2.30159,2.30159,0,0,0-1.02735.23584,3.53584,3.53584,0,0,0-.91406.65966v6.98438H126.1333v-9.71777h1.60254a.63165.63165,0,0,1,.65039.45214Z"/></g><g class="cls-1"><path class="cls-2" d="M51.93994,138.07982a3.06993,3.06993,0,0,0,.77832,1.99854,2.36161,2.36161,0,0,0,1.71094.63134,3.00812,3.00812,0,0,0,.92773-.12744,4.41306,4.41306,0,0,0,.68848-.28271q.29736-.15528.53711-.28272a1.0156,1.0156,0,0,1,.47558-.12695.55641.55641,0,0,1,.47168.22607l.75391.94239a4.09017,4.09017,0,0,1-.91406.79638,4.8916,4.8916,0,0,1-1.03711.5,5.55767,5.55767,0,0,1-1.084.2544,8.27325,8.27325,0,0,1-1.05566.0708,5.307,5.307,0,0,1-1.89941-.335,4.30331,4.30331,0,0,1-1.53614-.98975,4.64455,4.64455,0,0,1-1.03222-1.626,6.205,6.205,0,0,1-.377-2.25244,5.32265,5.32265,0,0,1,.3252-1.86621,4.38848,4.38848,0,0,1,2.42773-2.55908,4.90929,4.90929,0,0,1,1.97852-.38184,4.84185,4.84185,0,0,1,1.7207.29688,3.81927,3.81927,0,0,1,1.35742.8623,3.8918,3.8918,0,0,1,.88575,1.39063,5.22325,5.22325,0,0,1,.31542,1.88037,3.24165,3.24165,0,0,1-.02832.48047.846.846,0,0,1-.09375.30176.34248.34248,0,0,1-.17871.15527.85271.85271,0,0,1-.293.04248Zm4.09082-1.54541a2.71515,2.71515,0,0,0-.1084-.773,1.79453,1.79453,0,0,0-.34375-.65039,1.664,1.664,0,0,0-.59375-.44775,2.03936,2.03936,0,0,0-.85742-.165,1.97327,1.97327,0,0,0-1.46094.52783,2.67449,2.67449,0,0,0-.68847,1.5083Z"/><path class="cls-2" d="M68.78467,142.53832H66.28662a.70317.70317,0,0,1-.457-.14161,1.10382,1.10382,0,0,1-.27832-.32959l-1.91309-3.19531a1.93707,1.93707,0,0,1-.24512.56543l-1.64062,2.62988a1.50878,1.50878,0,0,1-.27832.3252.60743.60743,0,0,1-.419.146H58.73681l3.29883-5.01465-3.167-4.70313h2.49707a.86779.86779,0,0,1,.415.0752.6784.6784,0,0,1,.23535.24512l1.9043,3.082a2.38714,2.38714,0,0,1,.123-.3252,2.44364,2.44364,0,0,1,.17871-.32471l1.46093-2.38476a.67.67,0,0,1,.584-.36768h2.38476l-3.167,4.59033Z"/><path class="cls-2" d="M72.30029,134.093a5.66212,5.66212,0,0,1,.62207-.58935,4.04789,4.04789,0,0,1,.70606-.46192,3.8026,3.8026,0,0,1,.81152-.30127,3.87038,3.87038,0,0,1,.94238-.10839,3.11531,3.11531,0,0,1,1.4375.33447,3.2216,3.2216,0,0,1,1.126.9707,4.81619,4.81619,0,0,1,.73535,1.56006,7.70591,7.70591,0,0,1,.26367,2.11133,6.598,6.598,0,0,1-.29687,2.022,4.92637,4.92637,0,0,1-.84375,1.60693,3.89761,3.89761,0,0,1-1.31446,1.06055,3.79593,3.79593,0,0,1-1.71093.38184,3.41621,3.41621,0,0,1-1.34278-.23584,3.36174,3.36174,0,0,1-.98535-.64112v3.874H69.84912V132.82054h1.60254a.63165.63165,0,0,1,.65039.45215Zm.15039,5.88135a2.07885,2.07885,0,0,0,.79688.59424,2.477,2.477,0,0,0,.91894.16943,2.01334,2.01334,0,0,0,.85742-.1792,1.69857,1.69857,0,0,0,.66407-.56054,2.83076,2.83076,0,0,0,.42968-.97559,5.85106,5.85106,0,0,0,.15039-1.41406,6.36224,6.36224,0,0,0-.127-1.376,2.74946,2.74946,0,0,0-.3584-.91455,1.3808,1.3808,0,0,0-.56054-.5039,1.70339,1.70339,0,0,0-.73536-.15577,2.28489,2.28489,0,0,0-1.15527.26856,3.18406,3.18406,0,0,0-.88086.78711Z"/><path class="cls-2" d="M82.687,138.07982a3.07476,3.07476,0,0,0,.77734,1.99854,2.36162,2.36162,0,0,0,1.71094.63134,3.01033,3.01033,0,0,0,.92871-.12744,4.36055,4.36055,0,0,0,.6875-.28271c.19824-.10352.377-.19776.53809-.28272a1.01265,1.01265,0,0,1,.47558-.12695.55641.55641,0,0,1,.47168.22607l.75391.94239a4.11584,4.11584,0,0,1-.915.79638,4.88444,4.88444,0,0,1-1.03613.5,5.55767,5.55767,0,0,1-1.084.2544,8.28491,8.28491,0,0,1-1.05566.0708,5.307,5.307,0,0,1-1.89941-.335,4.29479,4.29479,0,0,1-1.53614-.98975,4.61687,4.61687,0,0,1-1.03222-1.626,6.18416,6.18416,0,0,1-.377-2.25244,5.32265,5.32265,0,0,1,.3252-1.86621,4.383,4.383,0,0,1,2.42676-2.55908,4.91071,4.91071,0,0,1,1.97949-.38184,4.8364,4.8364,0,0,1,1.71972.29688,3.80221,3.80221,0,0,1,1.35743.8623,3.88067,3.88067,0,0,1,.88672,1.39063,5.24435,5.24435,0,0,1,.31543,1.88037,3.38127,3.38127,0,0,1-.02833.48047.84526.84526,0,0,1-.09472.30176.34255.34255,0,0,1-.17871.15527.84293.84293,0,0,1-.292.04248Zm4.09082-1.54541a2.71515,2.71515,0,0,0-.1084-.773,1.80963,1.80963,0,0,0-.34375-.65039,1.67254,1.67254,0,0,0-.59375-.44775,2.04406,2.04406,0,0,0-.8584-.165,1.97325,1.97325,0,0,0-1.46093.52783,2.68022,2.68022,0,0,0-.6875,1.5083Z"/><path class="cls-2" d="M93.15869,134.42259a4.353,4.353,0,0,1,1.06543-1.31006,2.19923,2.19923,0,0,1,1.41309-.48046,1.74555,1.74555,0,0,1,1.07519.311l-.16992,1.92285a.43453.43453,0,0,1-.14649.25928.45406.45406,0,0,1-.26855.07031,3.214,3.214,0,0,1-.43359-.042,3.562,3.562,0,0,0-.52735-.04248,1.82149,1.82149,0,0,0-.63672.10352,1.58826,1.58826,0,0,0-.49414.292,2.0928,2.0928,0,0,0-.3916.46191,4.44826,4.44826,0,0,0-.32519.62207v5.94776H90.71728v-9.71778h1.53614a.80446.80446,0,0,1,.54687.14112.89174.89174,0,0,1,.2168.49023Z"/><path class="cls-2" d="M101.18017,142.6892a3.27421,3.27421,0,0,1-1.16894-.19336,2.26282,2.26282,0,0,1-1.38574-1.41846,3.458,3.458,0,0,1-.17871-1.1499v-5.24073h-.915a.47853.47853,0,0,1-.499-.52783v-1.01806l1.55469-.28272.52832-2.5166a.52616.52616,0,0,1,.5752-.42432h1.35742v2.96h2.50683v1.80957h-2.50683v5.0708a.97976.97976,0,0,0,.19238.64112.67244.67244,0,0,0,.55176.23584,1.05168,1.05168,0,0,0,.32031-.04248,1.3147,1.3147,0,0,0,.22656-.09424c.0625-.03467.1211-.06592.17383-.09424a.349.349,0,0,1,.165-.04248.32362.32362,0,0,1,.18848.05176.57635.57635,0,0,1,.15136.17431l.78223,1.24414a3.82522,3.82522,0,0,1-1.21582.64112A4.59173,4.59173,0,0,1,101.18017,142.6892Z"/><path class="cls-2" d="M110.98193,134.81859a.7542.7542,0,0,1-.21191.231.53627.53627,0,0,1-.29688.0708.89618.89618,0,0,1-.38672-.09424q-.19775-.09448-.44238-.20264a4.85877,4.85877,0,0,0-.56055-.20263,2.55715,2.55715,0,0,0-.73046-.09424,1.61509,1.61509,0,0,0-.98047.25927.81114.81114,0,0,0-.34864.68311.66555.66555,0,0,0,.19727.49023,1.74605,1.74605,0,0,0,.52344.34424,6.30383,6.30383,0,0,0,.74023.273q.41456.12744.85254.27832a8.22765,8.22765,0,0,1,.85352.34864,3.00371,3.00371,0,0,1,.73925.49511,2.264,2.264,0,0,1,.52344.71631,2.3594,2.3594,0,0,1,.19824,1.01318,3.24776,3.24776,0,0,1-.25976,1.30518,2.85068,2.85068,0,0,1-.75879,1.03223,3.585,3.585,0,0,1-1.24414.67871,5.72163,5.72163,0,0,1-3.6377-.09912,5.82338,5.82338,0,0,1-.83008-.38184,3.65965,3.65965,0,0,1-.66894-.47119l.60352-.9707a.7012.7012,0,0,1,.65917-.3584.83129.83129,0,0,1,.4336.11816c.13183.07862.28027.16358.44336.2544a3.71331,3.71331,0,0,0,.58008.25439,2.53383,2.53383,0,0,0,.834.11768,2.2085,2.2085,0,0,0,.65039-.08448,1.22827,1.22827,0,0,0,.44238-.231.925.925,0,0,0,.25-.33008.94.94,0,0,0,.08008-.38184.70915.70915,0,0,0-.20215-.523,1.831,1.831,0,0,0-.52832-.35351,5.30809,5.30809,0,0,0-.749-.27344q-.4248-.12231-.8623-.27344a7.20582,7.20582,0,0,1-.8584-.35791,2.918,2.918,0,0,1-.74414-.523,2.43812,2.43812,0,0,1-.52832-.77783,2.78936,2.78936,0,0,1-.20215-1.12158,2.84138,2.84138,0,0,1,.23535-1.14551,2.70663,2.70663,0,0,1,.707-.95654,3.5008,3.5008,0,0,1,1.17383-.65967,4.92117,4.92117,0,0,1,1.626-.24512,5.03781,5.03781,0,0,1,1.88477.33936,4.08682,4.08682,0,0,1,1.39453.88574Z"/></g><path class="cls-3" d="M76.78619,55.06306c-.05842,0-.11707-.00214-.17584-.00689a2.33069,2.33069,0,0,1-1.587-.72757L67.54593,46.382a1.45894,1.45894,0,0,1,2.125-1.99961l7.08842,7.53341L92.72389,36.892a1.459,1.459,0,0,1,1.99985,2.125L78.36764,54.40886l-.03751.0342A2.28259,2.28259,0,0,1,76.78619,55.06306Z"/><path class="cls-2" d="M56.32722,75.38944a8.36673,8.36673,0,0,1-3.6066-5.75831,5.39042,5.39042,0,0,0-1.55786-3.30335c-1.67349,2.44676-5.37594,7.86747-7.46939,10.98638-.72525,1.07849-.13757,1.57032,1.08479,1.45571,2.24457-.21255,4.48914-.44076,6.90562-.67939.74822,2.14554,1.4568,4.25572,2.23313,6.34192.15111.40324.52935.96179.86593,1.00555.3418.04382.88267-.38244,1.12754-.7346,1.88922-2.726,5.64478-8.18949,5.64478-8.18949l-.09063-.1094a8.04868,8.04868,0,0,1-5.13731-1.015"/><path class="cls-2" d="M109.98262,66.18188c-.91288.445-1.36305,1.2036-1.51309,2.95735a8.05877,8.05877,0,0,1-3.08971,6.145A8.18939,8.18939,0,0,1,99.807,76.68265c.62629.91078,3.82851,5.5677,5.52808,8.01961.24486.35325.78567.77951,1.12746.73569.33557-.04376.71591-.60231.86492-1.00555.77741-2.0862,1.486-4.19632,2.23414-6.34192,2.41655.23863,4.6601.46684,6.90569.67939,1.22236.11461,1.81-.37722,1.08581-1.45571-2.13931-3.18664-5.95217-8.76681-7.57045-11.13228"/><path class="cls-4" d="M87.28757,79.36788a9.777,9.777,0,0,1-5.57037-2.01956,1.674,1.674,0,0,0-2.3805-.0057c-1.628,1.05051-4.12069,2.37219-6.986,1.72939-2.88284-.64421-4.51748-2.89744-5.49616-4.53612-.688-1.1557-.91053-1.15048-1.84717-.93962a8.51945,8.51945,0,0,1-6.519-.753A8.05188,8.05188,0,0,1,54.953,67.23957c-.518-2.49115-1.15428-2.85968-2.58994-3.156a7.15977,7.15977,0,0,1-4.96046-3.60078,7.55086,7.55086,0,0,1-.15149-6.7003c.67224-1.51759.56574-1.99725-.6701-3.01807a7.45443,7.45443,0,0,1-3.00845-5.78907,7.91293,7.91293,0,0,1,3.11863-6.09585c1.08968-.92549,1.18835-1.35113.62071-2.67875a7.60006,7.60006,0,0,1-.00309-6.76928,8.12,8.12,0,0,1,5.64374-3.97715c1.30173-.31166,1.50618-.554,1.5627-1.85192a7.7442,7.7442,0,0,1,2.92392-6.13492,8.62165,8.62165,0,0,1,7.026-1.3408c1.25436.22464,1.58834.07124,2.23-1.02783a8.25062,8.25062,0,0,1,5.41542-4.3033,8.67263,8.67263,0,0,1,6.85073,1.82391,1.83128,1.83128,0,0,0,2.59445.02707c1.61245-1.0289,4.08009-2.32209,6.889-1.68689,2.85969.64184,4.52615,2.93935,5.53083,4.61163.606,1.00682.80355,1.09444,1.92007.85105a8.3687,8.3687,0,0,1,7.01992,1.17671,7.79566,7.79566,0,0,1,3.05748,6.30458c.05628,1.3814.3436,1.58953,1.4511,1.81678a7.89994,7.89994,0,0,1,6.53835,7.06954l.03515.2675a1.45559,1.45559,0,0,1-.00736.43074l-.04465.2675c-.00949.05568-.01306.10317-.01733.14841l-.00356.03585a5.25391,5.25391,0,0,1-.42813,1.73522c-.8406,1.81238-.44547,2.57473,1.08731,3.816a6.95539,6.95539,0,0,1,2.73122,5.40249,7.71383,7.71383,0,0,1-3.0563,5.96c-1.29247,1.0619-1.4036,1.50239-.74419,2.94588a7.37044,7.37044,0,0,1,.03657,6.51841,8.00908,8.00908,0,0,1-5.44036,3.99235c-1.354.32912-1.74221.66559-1.89276,2.40615a7.871,7.871,0,0,1-3.04134,6.0036,8.49773,8.49773,0,0,1-6.74257,1.21221c-1.38888-.24932-1.71728-.03918-2.28741.93083-1.45324,2.46931-3.22632,3.89333-5.42089,4.35424A6.92979,6.92979,0,0,1,87.28757,79.36788Zm-6.7345-5.43727a4.93863,4.93863,0,0,1,2.82526,1.01893c1.80656,1.25163,3.33056,1.71443,4.74413,1.41286A5.56177,5.56177,0,0,0,91.63159,73.384c1.22195-2.07988,2.81362-2.77515,5.31878-2.32351a5.72942,5.72942,0,0,0,4.50526-.6967,5.1038,5.1038,0,0,0,1.85548-3.89808c.25028-2.89625,1.4416-4.34212,4.11155-4.99085a5.157,5.157,0,0,0,3.53-2.48427,4.51935,4.51935,0,0,0-.09237-3.97881c-1.21317-2.65595-.76532-4.51357,1.54536-6.412a4.86582,4.86582,0,0,0,1.99155-3.694,4.09509,4.09509,0,0,0-1.64961-3.14689c-2.659-2.15337-3.24532-4.40671-1.9006-7.30629a2.49759,2.49759,0,0,0,.17453-.80486l.00261-.02695c.01092-.11184.02351-.2289.04441-.35167l.00783-.04642-.00712-.0545a5.00564,5.00564,0,0,0-4.23218-4.58967c-2.50612-.51409-3.672-1.91924-3.77959-4.55595a4.98663,4.98663,0,0,0-1.86855-4.07119,5.5567,5.5567,0,0,0-4.66886-.67877,4.12956,4.12956,0,0,1-5.04523-2.19754c-.729-1.21375-1.90226-2.87179-3.67179-3.26894-1.74672-.39524-3.5058.55233-4.67693,1.2996a4.65194,4.65194,0,0,1-5.8533-.1065,5.91544,5.91544,0,0,0-4.57305-1.3459A5.48875,5.48875,0,0,0,69.215,16.56987a4.479,4.479,0,0,1-5.26642,2.42846,5.81858,5.81858,0,0,0-4.74176.79061,4.93137,4.93137,0,0,0-1.77653,3.94094c-.1141,2.62164-1.21459,3.94356-3.79823,4.562a5.31346,5.31346,0,0,0-3.74255,2.50136,4.794,4.794,0,0,0,.10532,4.26021c1.06594,2.49317.64279,4.30258-1.41512,6.05026a5.22576,5.22576,0,0,0-2.08926,3.85154,4.63883,4.63883,0,0,0,1.9488,3.55947c2.255,1.8626,2.68361,3.73115,1.47947,6.45a4.65854,4.65854,0,0,0,.04939,4.12794,4.2884,4.2884,0,0,0,2.98447,2.13307c3.24567.67034,4.26471,2.5707,4.85728,5.41993a5.32325,5.32325,0,0,0,2.20752,3.71239,5.752,5.752,0,0,0,4.34651.39228c2.274-.51338,3.72189.15031,4.99667,2.291.70157,1.17469,1.84183,2.78417,3.62727,3.18334,1.77712.39869,3.47956-.50294,4.76444-1.33213A5.14258,5.14258,0,0,1,80.55307,73.93061Z"/></svg>