<?xml version="1.0" encoding="utf-8"?>
<!-- Generator: Adobe Illustrator 24.3.0, SVG Export Plug-In . SVG Version: 6.00 Build 0)  -->
<svg version="1.1" id="Layer_1" xmlns="http://www.w3.org/2000/svg" xmlns:xlink="http://www.w3.org/1999/xlink" x="0px" y="0px"
	 viewBox="0 0 120 112" style="enable-background:new 0 0 120 112;" xml:space="preserve">
<style type="text/css">
	.st0{fill:#646564;}
	.st1{fill:#E61E27;}
</style>
<g>
	<g>
		<path class="st0" d="M48.55685,58.16685c-0.70444,0-1.46759-0.1174-2.11332-0.46963l-12.44514-6.04646
			c-0.82185-0.41092-1.46759-1.17407-1.7024-2.05462l0,0c-0.0587-0.0587-0.0587-0.1174-0.0587-0.23481l-0.0587-0.29352
			c0-0.0587,0-0.0587,0-0.1174v-0.17611v-0.0587v-0.17611c0-0.0587,0-0.0587,0-0.1174l0.0587-0.29352
			c0-0.1174,0.0587-0.1174,0.0587-0.23481l0,0c0.0587-0.17611,0.1174-0.41092,0.17611-0.58704
			c0.29352-0.64574,0.82185-1.17407,1.52629-1.52629l0.11741-0.0587l3.16999-1.58499
			c0.52833-0.23482,1.17407-0.0587,1.40888,0.46963c0.23482,0.52834,0.0587,1.17407-0.46963,1.40889l-3.28739,1.58499
			c-0.23482,0.1174-0.41093,0.29352-0.52833,0.52833c-0.0587,0.0587-0.0587,0.1174-0.11741,0.17611v0.0587v0.1174v0.1174v0.1174
			v0.1174v0.0587c0.11741,0.35222,0.29352,0.58703,0.58704,0.70444l12.44514,6.04646c0.70444,0.41092,1.585,0.41092,2.40685,0
			l12.21033-5.98775c0,0,0,0,0.0587,0l0.1174-0.0587c0.23481-0.1174,0.41092-0.29351,0.52833-0.52833l0,0
			c0-0.0587,0.0587-0.1174,0.0587-0.17611v-0.0587v-0.23481v-0.1174v-0.1174v-0.0587
			c-0.1174-0.35222-0.29352-0.58704-0.58704-0.70444h-0.0587l-3.81573-1.99592c-0.52833-0.29352-0.70444-0.93925-0.41092-1.40889
			c0.29352-0.52833,0.93925-0.70444,1.40888-0.41092l3.81573,2.11333c0.82185,0.41092,1.46759,1.17407,1.7024,2.05462l0,0
			c0.0587,0.0587,0.0587,0.1174,0.0587,0.17611l0.0587,0.29352c0,0.0587,0,0.0587,0,0.1174v0.1174c0,0.0587,0,0.0587,0,0.1174
			v0.17611c0,0.0587,0,0.0587,0,0.1174l-0.0587,0.29352c0,0.1174-0.0587,0.1174-0.0587,0.23481l0,0
			c-0.0587,0.17611-0.11741,0.41092-0.17611,0.58704v0.0587c-0.35223,0.64574-0.82185,1.11536-1.46759,1.46759h-0.0587
			c0,0,0,0-0.0587,0l-12.32774,5.98776C49.96574,57.99074,49.26129,58.16685,48.55685,58.16685z"/>
	</g>
	<g>
		<path class="st1" d="M48.08722,50.24188c-0.70444,0-1.46759-0.1174-2.11333-0.46963l-12.32773-6.04646
			c-1.11537-0.52833-1.81981-1.6437-1.81981-2.93518c0-1.29147,0.70444-2.40684,1.81981-2.93517l4.87239-2.40684
			c0.52833-0.23482,1.17407-0.0587,1.40888,0.46963c0.23482,0.52833,0.0587,1.17407-0.46963,1.40888l-4.87239,2.40685
			c-0.41093,0.17611-0.64574,0.58703-0.64574,0.99796c0,0.41092,0.23481,0.82185,0.64574,0.99796l12.38644,6.04646
			c0.70444,0.41092,1.58499,0.41092,2.40684,0l12.38644-6.04646c0.41092-0.17611,0.64574-0.58703,0.64574-0.99796
			c0-0.41092-0.23481-0.82185-0.64574-0.99796l-4.87239-2.40684c-0.52834-0.23481-0.70444-0.88055-0.46963-1.40889
			c0.23481-0.52833,0.88055-0.70444,1.40889-0.46963l4.87239,2.40684c1.11537,0.52834,1.81981,1.6437,1.81981,2.93518
			s-0.70444,2.40685-1.81981,2.93517l-12.50384,6.04646C49.49611,50.12447,48.85037,50.24188,48.08722,50.24188z"/>
	</g>
	<path class="st0" d="M88.123,34.21583V15.2546c0-0.58704-0.46964-1.05666-1.05667-1.05666h-1.40887
		c-12.50385,0-17.72845-4.9898-17.78716-4.9898l-0.99796-1.05666c-0.17611-0.17611-0.46963-0.35222-0.76315-0.35222
		s-0.52834,0.11741-0.70444,0.29352l-0.99796,0.99796c-0.0587,0.11741-5.28331,5.0485-17.84586,5.0485h-1.40889
		c-0.58703,0-1.05666,0.46963-1.05666,1.05666v8.3946l-9.86219,4.81369l-0.11741,0.0587
		c-0.64574,0.35222-1.17407,0.82185-1.52629,1.52629c-0.1174,0.17611-0.1174,0.41092-0.17611,0.58703
		c-0.0587,0.0587-0.0587,0.11741-0.0587,0.23482l-0.11741,0.23482c0,0.0587,0,0.0587,0,0.11741v0.17611v0.0587v0.23482
		c0,0.0587,0,0.0587,0,0.11741l0.0587,0.29352c0,0.11741,0.0587,0.11741,0.0587,0.23482
		c0.23481,0.93925,0.88055,1.6437,1.7024,2.05462l12.38644,6.04646c0.70444,0.35222,1.35018,0.46963,2.11332,0.46963
		s1.46759-0.1174,2.11333-0.46963l12.32773-5.92905c0,0,0,0,0.0587,0l0.0587-0.0587
		c0.64574-0.29352,1.17407-0.82185,1.46759-1.46759v-0.11741c0.1174-0.1174,0.1174-0.35222,0.17611-0.58703
		c0.05871-0.11741,0.05871-0.11741,0.05871-0.23482l0.0587-0.29352c0-0.0587,0-0.0587,0-0.11741v-0.17611
		c0-0.0587,0-0.0587,0-0.11741v-0.17611c0-0.0587,0-0.0587,0-0.11741l-0.17611-0.23481c0-0.11741-0.0587-0.11741-0.0587-0.23482
		c-0.23482-0.93925-0.88055-1.6437-1.7024-2.05462l-12.32773-5.98776c-0.70444-0.35222-1.35018-0.46963-2.11332-0.46963
		c-0.29352,0-0.52833,0.0587-0.76315,0.11741l-1.58499,0.64574v-6.45738h0.41092c13.5605,0,19.25474-5.57683,19.31345-5.63554
		l0.29352-0.29352l0.29352,0.29352c0.0587,0.0587,5.69424,5.63554,19.31344,5.63554h0.41093c0,4.9898,0,10.097,0,15.0868
		c0,2.64166,0.1174,5.1072-0.52833,7.69016c-0.70444,2.40684-1.76111,4.63758-3.05258,6.7509
		c-3.99184,6.33998-9.97959,11.32977-16.08475,15.55643l-0.17612,0.1174l-0.17611-0.1174
		c-3.75702-2.46555-7.04442-4.9898-9.80349-7.80757c-0.41092-0.41092-1.05666-0.41092-1.52629,0
		c-0.41092,0.41092-0.41092,1.05666,0,1.52629c2.87647,2.81777,6.28127,5.57683,10.1557,8.04237l0.76315,0.52834
		c0.17611,0.1174,0.41092,0.1174,0.58704,0.1174c0.17611,0,0.41092-0.0587,0.58704-0.17611l0.76315-0.52833
		c8.86423-6.22256,15.0281-12.67995,18.25679-19.31345C88.35782,38.7947,88.24041,35.33119,88.123,34.21583z M48.49815,24.06012
		L48.49815,24.06012c0.41092,0,0.82185,0.11741,1.23277,0.29352l12.38643,6.04646c0.29352,0.11741,0.52833,0.41092,0.58704,0.70444
		v0.0587v0.11741v0.11741v0.23482v0.0587c0,0.11741-0.0587,0.11741-0.0587,0.17611l0,0
		c-0.1174,0.23482-0.29352,0.41092-0.52833,0.52833l-0.1174,0.0587c0,0,0,0-0.0587,0l-12.21033,6.04646
		c-0.76315,0.41092-1.585,0.41092-2.40685,0l-12.38644-6.04646c-0.29352-0.11741-0.52833-0.41093-0.58704-0.70444v-0.11741v-0.11741
		v-0.11741v-0.11741v-0.11741v-0.0587c0-0.11741,0.0587-0.11741,0.11741-0.17611c0.11741-0.23481,0.29352-0.41092,0.52833-0.52833
		l10.50793-5.16591L48.49815,24.06012z"/>
</g>
<g>
	<g>
		<path class="st0" d="M71.46917,86.62395h3.61706v1.43847h-3.61706V86.62395z"/>
		<g>
			<g>
				<path class="st0" d="M21.45682,90.04593c0.36319,0,0.68778-0.06079,0.97378-0.18185
					c0.28653-0.12106,0.5276-0.29076,0.7232-0.50962c0.1956-0.21886,0.34574-0.48425,0.45041-0.79616
					c0.10468-0.3119,0.15701-0.66082,0.15701-1.0478v-6.04728h1.87831v6.04728c0,0.60056-0.09674,1.15617-0.2897,1.66579
					c-0.19296,0.50963-0.46997,0.94946-0.83105,1.32005c-0.36054,0.37006-0.79933,0.65871-1.31635,0.86594
					c-0.51649,0.2067-1.09855,0.31032-1.74562,0.31032c-0.65183,0-1.236-0.10361-1.75302-0.31032
					c-0.5165-0.20723-0.95581-0.49588-1.31635-0.86594c-0.36054-0.37059-0.63809-0.81042-0.83105-1.32005
					c-0.19296-0.50962-0.2897-1.06524-0.2897-1.66579v-6.04728h1.87831v6.04041c0,0.38644,0.05234,0.73589,0.15754,1.04779
					c0.10468,0.3119,0.25587,0.57835,0.45359,0.79933c0.19772,0.2215,0.43984,0.39226,0.72637,0.51332
					C20.76904,89.98514,21.09363,90.04593,21.45682,90.04593z"/>
				<path class="st0" d="M28.89394,85.37368c0.29287-0.33041,0.62593-0.59791,0.99863-0.80303
					c0.37217-0.20459,0.8099-0.30714,1.31265-0.30714c0.3912,0,0.74805,0.08141,1.07211,0.24424
					c0.32354,0.16335,0.60267,0.39966,0.83792,0.70892c0.23472,0.30979,0.41658,0.69148,0.54451,1.14507
					c0.12793,0.45412,0.1919,0.97431,0.1919,1.56112c0,0.53553-0.0719,1.03088-0.21622,1.48711
					c-0.14432,0.45676-0.3505,0.8522-0.618,1.18736c-0.26803,0.33517-0.59157,0.59685-0.97061,0.78558
					c-0.37958,0.18874-0.80461,0.28284-1.27459,0.28284c-0.40019,0-0.74276-0.06186-1.02665-0.18504
					c-0.28389-0.12318-0.53764-0.29446-0.76126-0.51332v2.93298h-1.72447v-9.50416H28.314
					c0.22362,0,0.37006,0.10468,0.43984,0.31402L28.89394,85.37368z M28.98434,89.70336
					c0.1956,0.23737,0.40865,0.40495,0.63914,0.50275s0.48055,0.14697,0.75069,0.14697c0.26063,0,0.49588-0.04916,0.70522-0.14697
					c0.20988-0.0978,0.3875-0.24635,0.53447-0.44672c0.14644-0.20036,0.25957-0.45253,0.33834-0.75756
					c0.0793-0.30504,0.11895-0.66452,0.11895-1.07899c0-0.41922-0.03384-0.77395-0.1015-1.06524
					c-0.06714-0.29076-0.16388-0.52707-0.2897-0.7084c-0.12582-0.18186-0.27807-0.31455-0.45728-0.39808
					c-0.17921-0.08405-0.38275-0.12582-0.61113-0.12582c-0.35843,0-0.66346,0.07559-0.91457,0.22679
					c-0.25164,0.15119-0.48901,0.36424-0.71263,0.63914V89.70336z"/>
			</g>
			<path class="st0" d="M41.15503,91.6726c-0.62381,0-1.10225-0.17551-1.43477-0.52707
				c-0.33305-0.35155-0.49958-0.83686-0.49958-1.45591v-4.0014h-0.73324c-0.09304,0-0.17234-0.03013-0.23737-0.09093
				c-0.06502-0.06026-0.0978-0.15119-0.0978-0.27225v-0.68461l1.15247-0.1882l0.36319-1.9555
				c0.02326-0.09304,0.06714-0.16547,0.13269-0.21674c0.06502-0.05075,0.14855-0.07666,0.25111-0.07666h0.89396v2.25578h1.9132
				v1.22912h-1.9132v3.88245c0,0.22362,0.05445,0.39808,0.16388,0.5239c0.10943,0.12582,0.25957,0.18873,0.45041,0.18873
				c0.10732,0,0.19666-0.01321,0.26908-0.03859c0.0719-0.02538,0.13481-0.05234,0.18873-0.08035
				c0.05339-0.02802,0.10097-0.05445,0.14273-0.08036c0.04229-0.02538,0.08406-0.03806,0.12582-0.03806
				c0.05128,0,0.09304,0.01269,0.12582,0.03806c0.03225,0.02591,0.06767,0.06397,0.10468,0.11525l0.51702,0.83792
				c-0.25164,0.20987-0.54029,0.36794-0.86594,0.47526C41.84175,91.61921,41.50447,91.6726,41.15503,91.6726z"/>
			<path class="st0" d="M47.07702,84.28465c0.53077,0,1.01343,0.08617,1.44905,0.25799
				c0.43508,0.17234,0.80725,0.41711,1.11705,0.73325c0.30979,0.31667,0.54821,0.70311,0.7158,1.15934
				s0.25164,0.96638,0.25164,1.5294c0,0.56831-0.08406,1.08005-0.25164,1.53627c-0.16758,0.45623-0.40601,0.84532-0.7158,1.16621
				c-0.30979,0.32143-0.68196,0.56831-1.11705,0.74012c-0.43562,0.17234-0.91827,0.25851-1.44905,0.25851
				c-0.53553,0-1.02189-0.08617-1.45961-0.25851c-0.43773-0.17181-0.81149-0.41869-1.12075-0.74012
				c-0.30979-0.32089-0.54927-0.70998-0.7195-1.16621c-0.1697-0.45622-0.25481-0.96796-0.25481-1.53627
				c0-0.56302,0.08511-1.07317,0.25481-1.5294c0.17023-0.45623,0.40971-0.84267,0.7195-1.15934
				c0.30927-0.31614,0.68302-0.56091,1.12075-0.73325C46.05513,84.37082,46.5415,84.28465,47.07702,84.28465z M47.07702,90.33881
				c0.59579,0,1.03669-0.19983,1.32323-0.60056c0.28653-0.40018,0.42927-0.98699,0.42927-1.75989
				c0-0.77237-0.14274-1.36129-0.42927-1.76677c-0.28653-0.40495-0.72743-0.60742-1.32323-0.60742
				c-0.60531,0-1.05361,0.20406-1.34437,0.61112c-0.29129,0.40759-0.43667,0.99493-0.43667,1.76307
				c0,0.76866,0.14538,1.35388,0.43667,1.75672C46.02341,90.13792,46.47171,90.33881,47.07702,90.33881z"/>
			<path class="st0" d="M61.69962,90.26903v1.29203H56.1128v-1.29203h2.04642v-5.88658c0-0.23313,0.00687-0.47262,0.02062-0.7195
				l-1.45222,1.21485c-0.08406,0.06555-0.16653,0.10626-0.24794,0.12265s-0.1586,0.01744-0.23049,0.00317
				c-0.07243-0.01374-0.13639-0.03806-0.1919-0.07348c-0.05604-0.03489-0.0978-0.07295-0.12582-0.11472l-0.54504-0.74751
				l3.07994-2.61896h1.41732v8.82008H61.69962z"/>
			<path class="st0" d="M70.3241,86.51187c0,0.88021-0.09463,1.64465-0.28283,2.29436
				c-0.18874,0.64919-0.44936,1.18578-0.78241,1.60976c-0.33305,0.42345-0.72637,0.73906-1.17996,0.94629
				c-0.45412,0.2067-0.94418,0.31032-1.47019,0.31032c-0.52601,0-1.01395-0.10361-1.46278-0.31032
				c-0.44936-0.20723-0.83951-0.52284-1.16991-0.94629c-0.33041-0.42398-0.58892-0.96057-0.77501-1.60976
				c-0.18608-0.64972-0.27966-1.41415-0.27966-2.29436c0-0.88444,0.09357-1.64993,0.27966-2.297
				c0.18609-0.64707,0.4446-1.1826,0.77501-1.60658c0.33041-0.42345,0.72056-0.73906,1.16991-0.94576
				c0.44883-0.20724,0.93678-0.31085,1.46278-0.31085c0.52602,0,1.01608,0.10361,1.47019,0.31085
				c0.45359,0.2067,0.84691,0.52231,1.17996,0.94576c0.33305,0.42398,0.59367,0.95951,0.78241,1.60658
				C70.22948,84.86194,70.3241,85.62743,70.3241,86.51187z M68.54306,86.51187c0-0.7306-0.05339-1.33591-0.16071-1.8154
				c-0.10679-0.47949-0.25005-0.86118-0.42927-1.14507c-0.17921-0.28389-0.38539-0.48319-0.618-0.59738
				c-0.23314-0.11419-0.47474-0.17075-0.72638-0.17075c-0.24688,0-0.4853,0.05656-0.7158,0.17075
				c-0.23049,0.11419-0.43402,0.31349-0.61112,0.59738c-0.17657,0.28388-0.31773,0.66557-0.42239,1.14507
				c-0.10468,0.47949-0.15701,1.0848-0.15701,1.8154c0,0.73113,0.05234,1.33644,0.15701,1.81593
				c0.10467,0.47948,0.24582,0.86118,0.42239,1.14507c0.1771,0.28442,0.38063,0.48319,0.61112,0.59738
				c0.2305,0.11419,0.46892,0.17075,0.7158,0.17075c0.25164,0,0.49324-0.05656,0.72638-0.17075
				c0.2326-0.11419,0.43878-0.31297,0.618-0.59738c0.17921-0.28389,0.32248-0.66558,0.42927-1.14507
				C68.48967,87.84831,68.54306,87.243,68.54306,86.51187z"/>
			<path class="st0" d="M83.24284,84.39619l-3.90359,9.1341c-0.05128,0.12106-0.11789,0.21305-0.1993,0.27596
				c-0.08141,0.06291-0.20564,0.0941-0.37323,0.0941h-1.28516l1.34067-2.87694l-2.89809-6.62722h1.51565
				c0.13481,0,0.24054,0.03278,0.31773,0.0978c0.07665,0.06503,0.13375,0.13956,0.17075,0.22362l1.52253,3.71487
				c0.05128,0.12582,0.0941,0.25163,0.12899,0.37693c0.03542,0.12582,0.06873,0.25428,0.1015,0.38433
				c0.04176-0.13005,0.08405-0.25957,0.12582-0.3875c0.04176-0.12794,0.08828-0.25481,0.13956-0.38063l1.43847-3.70799
				c0.03753-0.09304,0.09885-0.17022,0.18503-0.23049c0.08617-0.06079,0.18291-0.09093,0.2897-0.09093H83.24284z"/>
			<path class="st0" d="M85.20469,88.19511c0.02802,0.36795,0.09304,0.68567,0.1956,0.95317
				c0.10255,0.26803,0.23737,0.48901,0.40495,0.66346c0.16759,0.17445,0.36689,0.30503,0.59738,0.3912
				s0.48531,0.12899,0.76443,0.12899c0.27966,0,0.5202-0.03225,0.72267-0.0978c0.203-0.06503,0.37958-0.13692,0.53077-0.21622
				c0.1512-0.0793,0.28389-0.1512,0.39808-0.21675c0.11419-0.06503,0.22468-0.0978,0.33199-0.0978
				c0.14433,0,0.25111,0.05392,0.32089,0.16071l0.49588,0.62857c-0.19084,0.22362-0.40495,0.41077-0.64232,0.56196
				c-0.23737,0.15173-0.4853,0.27226-0.74381,0.36319s-0.52126,0.15489-0.78876,0.1919
				c-0.26803,0.03753-0.5276,0.05604-0.77871,0.05604c-0.49852,0-0.96162-0.08247-1.38983-0.24794
				c-0.42821-0.16494-0.80091-0.40971-1.11758-0.73325s-0.56566-0.72373-0.74699-1.2011
				c-0.18134-0.47685-0.27226-1.02982-0.27226-1.65839c0-0.48901,0.07877-0.9484,0.23737-1.37926
				c0.15807-0.43033,0.38539-0.80515,0.68091-1.12445c0.29552-0.31878,0.65659-0.57148,1.08216-0.75756
				c0.42609-0.18609,0.90664-0.27914,1.44217-0.27914c0.45147,0,0.86805,0.0719,1.25027,0.21622
				c0.38169,0.14432,0.70998,0.35526,0.98436,0.63227c0.2749,0.27702,0.49006,0.61694,0.64601,1.01925
				c0.15596,0.40283,0.2342,0.86276,0.2342,1.37926c0,0.26063-0.02802,0.43667-0.08406,0.52707
				c-0.05604,0.09093-0.16283,0.13639-0.32142,0.13639H85.20469z M88.49398,87.15472c0-0.22362-0.0312-0.43403-0.0941-0.63227
				c-0.06291-0.19772-0.15701-0.37112-0.28283-0.5202c-0.12582-0.14909-0.28548-0.26644-0.47844-0.35262
				c-0.19348-0.08617-0.41816-0.12899-0.67403-0.12899c-0.49799,0-0.89025,0.14168-1.17678,0.42557
				c-0.286,0.28442-0.46892,0.68725-0.54822,1.2085H88.49398z"/>
			<path class="st0" d="M91.16898,85.39482c0.82364-0.75439,1.8154-1.13132,2.97474-1.13132
				c0.41869,0,0.79351,0.06873,1.12445,0.20618c0.33041,0.13744,0.60954,0.32829,0.83791,0.57253
				c0.22785,0.24424,0.40125,0.53658,0.5202,0.87651c0.11842,0.33992,0.17815,0.7121,0.17815,1.11704v4.52529h-0.78241
				c-0.16283,0-0.28864-0.02432-0.37693-0.07349c-0.08829-0.04864-0.1586-0.14749-0.20935-0.29657l-0.15384-0.51703
				c-0.18133,0.16335-0.35843,0.30662-0.53077,0.42979s-0.35155,0.2268-0.53764,0.31085
				c-0.18609,0.08353-0.38539,0.14749-0.59686,0.1919c-0.21199,0.04388-0.44618,0.06608-0.70206,0.06608
				c-0.30292,0-0.58205-0.0407-0.83791-0.12212c-0.2564-0.08141-0.47738-0.20353-0.66347-0.36636
				c-0.18608-0.16283-0.33093-0.36583-0.43297-0.60796c-0.10255-0.24159-0.15384-0.52337-0.15384-0.84479
				c0-0.18133,0.03014-0.36213,0.09093-0.54134c0.06026-0.17921,0.15965-0.34997,0.29657-0.51333
				c0.13745-0.16283,0.31561-0.31613,0.53447-0.46046c0.21886-0.14433,0.48743-0.27014,0.80673-0.37746
				c0.31878-0.10679,0.6899-0.19402,1.11388-0.26169c0.42345-0.06767,0.9077-0.10838,1.45222-0.12212v-0.41923
				c0-0.47948-0.10256-0.83421-0.30715-1.0647c-0.20512-0.2305-0.50063-0.34574-0.88708-0.34574
				c-0.27913,0-0.51068,0.03278-0.69465,0.0978c-0.18398,0.06503-0.34574,0.1385-0.48531,0.21992s-0.26644,0.1549-0.38063,0.21992
				c-0.11419,0.06503-0.24107,0.0978-0.38063,0.0978c-0.12106,0-0.22363-0.03172-0.30715-0.09409
				c-0.08405-0.06291-0.1512-0.1364-0.20248-0.22045L91.16898,85.39482z M95.1212,88.50226
				c-0.49799,0.02326-0.91722,0.06661-1.25714,0.12952c-0.3394,0.06238-0.61218,0.14273-0.81677,0.24053
				c-0.20512,0.0978-0.35155,0.21199-0.43984,0.34257c-0.08881,0.13005-0.13269,0.27226-0.13269,0.42557
				c0,0.30293,0.08934,0.51914,0.26855,0.64972s0.41341,0.1956,0.70205,0.1956c0.35368,0,0.65977-0.06396,0.91827-0.19243
				c0.25851-0.12794,0.51068-0.32195,0.75757-0.58311V88.50226z"/>
			<path class="st0" d="M100.05144,85.63906c0.22362-0.42821,0.48901-0.76443,0.79615-1.0092
				c0.30768-0.24424,0.67033-0.36636,1.08956-0.36636c0.33041,0,0.59579,0.07243,0.79615,0.21622l-0.11154,1.29203
				c-0.02379,0.08406-0.0571,0.14327-0.1015,0.17816c-0.04441,0.03489-0.10361,0.05234-0.17816,0.05234
				c-0.06978,0-0.17339-0.01163-0.31084-0.0349c-0.13745-0.02325-0.2712-0.03489-0.40125-0.03489
				c-0.19084,0-0.36107,0.02802-0.51015,0.08406c-0.14855,0.0555-0.28284,0.13586-0.40125,0.24053
				c-0.11895,0.10468-0.22362,0.23155-0.31455,0.38064c-0.0904,0.14908-0.17551,0.31931-0.25481,0.51015v4.41322h-1.72447v-7.16486
				h1.01237c0.17709,0,0.30027,0.03119,0.37006,0.0941c0.06978,0.06291,0.1163,0.17604,0.13956,0.33887L100.05144,85.63906z"/>
		</g>
	</g>
	<path class="st0" d="M5.59346,107.30334v-7.16486H6.6476c0.22362,0,0.37006,0.10467,0.43984,0.31402l0.11207,0.53077
		c0.12582-0.13956,0.25693-0.2675,0.39438-0.3838s0.28389-0.21675,0.43984-0.30028c0.15595-0.08405,0.32354-0.15014,0.50275-0.1993
		c0.17921-0.04864,0.37587-0.07295,0.59051-0.07295c0.45147,0,0.82259,0.12212,1.11388,0.36636
		c0.29076,0.24424,0.50857,0.56937,0.65289,0.97431c0.11155-0.23737,0.25111-0.4409,0.4187-0.61112
		c0.16758-0.1697,0.35156-0.3082,0.55192-0.41553c0.19983-0.10679,0.41288-0.18608,0.63862-0.23737
		c0.22626-0.05128,0.45306-0.07665,0.68091-0.07665c0.39596,0,0.74752,0.06026,1.05467,0.18133s0.56566,0.29816,0.77501,0.53077
		c0.20988,0.23261,0.369,0.51649,0.47843,0.8522c0.10943,0.33517,0.16441,0.71897,0.16441,1.15194v4.56017h-1.725v-4.56017
		c0-0.45623-0.10044-0.79933-0.30028-1.02982c-0.20036-0.23049-0.49376-0.34574-0.88021-0.34574
		c-0.17657,0-0.34098,0.03014-0.49218,0.09093c-0.15119,0.06027-0.28389,0.1475-0.39808,0.26169
		c-0.11419,0.11419-0.20353,0.25745-0.26856,0.42927c-0.06555,0.17234-0.0978,0.37006-0.0978,0.59368v4.56017H9.76244v-4.56017
		c0-0.47949-0.09674-0.82841-0.2897-1.04727c-0.19349-0.21886-0.47632-0.32829-0.84849-0.32829
		c-0.25164,0-0.48583,0.06185-0.70205,0.18503c-0.21675,0.12318-0.41817,0.29235-0.60425,0.50645v5.24426H5.59346z"/>
	<path class="st0" d="M17.1229,101.13712c0.82364-0.75439,1.8154-1.13132,2.97474-1.13132c0.4187,0,0.79351,0.06873,1.12445,0.20618
		c0.33041,0.13745,0.60954,0.32829,0.83792,0.57253c0.22785,0.24424,0.40125,0.53659,0.5202,0.87651
		c0.11842,0.33993,0.17816,0.7121,0.17816,1.11705v4.52528h-0.78241c-0.16282,0-0.28864-0.02431-0.37693-0.07348
		c-0.08829-0.04864-0.1586-0.1475-0.20935-0.29658l-0.15384-0.51702c-0.18133,0.16335-0.35843,0.30662-0.53077,0.42979
		c-0.17234,0.12318-0.35156,0.22679-0.53764,0.31085c-0.18609,0.08353-0.38539,0.14749-0.59685,0.1919
		c-0.21199,0.04388-0.44618,0.06608-0.70205,0.06608c-0.30292,0-0.58205-0.0407-0.83792-0.12212
		c-0.2564-0.08141-0.47738-0.20354-0.66346-0.36636s-0.33094-0.36583-0.43297-0.60795
		c-0.10256-0.2416-0.15384-0.52337-0.15384-0.8448c0-0.18133,0.03013-0.36213,0.09093-0.54134
		c0.06027-0.17921,0.15965-0.34997,0.29658-0.51332c0.13745-0.16283,0.31561-0.31614,0.53447-0.46046
		c0.21886-0.14433,0.48742-0.27014,0.80673-0.37746c0.31878-0.10679,0.68989-0.19402,1.11388-0.26168
		c0.42345-0.06767,0.9077-0.10838,1.45222-0.12212v-0.41922c0-0.47949-0.10256-0.83422-0.30715-1.06471
		c-0.20512-0.23049-0.50064-0.34574-0.88708-0.34574c-0.27913,0-0.51068,0.03278-0.69465,0.0978
		c-0.18397,0.06503-0.34574,0.13851-0.4853,0.21992c-0.13957,0.08141-0.26644,0.15489-0.38063,0.21992
		s-0.24107,0.0978-0.38063,0.0978c-0.12106,0-0.22362-0.03172-0.30715-0.0941c-0.08406-0.06291-0.1512-0.13639-0.20247-0.22045
		L17.1229,101.13712z M21.07513,104.24455c-0.49799,0.02325-0.91722,0.0666-1.25714,0.12952
		c-0.3394,0.06239-0.61218,0.14274-0.81677,0.24054c-0.20512,0.0978-0.35156,0.21199-0.43984,0.34257
		c-0.08881,0.13005-0.13269,0.27225-0.13269,0.42557c0,0.30292,0.08934,0.51914,0.26856,0.64972
		c0.17921,0.13058,0.41341,0.1956,0.70205,0.1956c0.35367,0,0.65976-0.06397,0.91827-0.19244
		c0.25851-0.12793,0.51068-0.32195,0.75756-0.5831V104.24455z"/>
	<path class="st0" d="M26.66883,107.41489c-0.62381,0-1.10225-0.17551-1.43477-0.52707
		c-0.33305-0.35155-0.49958-0.83686-0.49958-1.45592v-4.00139h-0.73324c-0.09304,0-0.17234-0.03014-0.23737-0.09093
		c-0.06503-0.06027-0.0978-0.1512-0.0978-0.27226v-0.68461l1.15247-0.18819l0.36319-1.9555
		c0.02326-0.09305,0.06714-0.16547,0.13269-0.21675c0.06503-0.05075,0.14855-0.07665,0.25111-0.07665h0.89396v2.25577h1.9132
		v1.22913h-1.9132v3.88244c0,0.22363,0.05445,0.39808,0.16388,0.5239c0.10943,0.12582,0.25957,0.18873,0.45041,0.18873
		c0.10732,0,0.19666-0.01321,0.26908-0.03859c0.0719-0.02538,0.13481-0.05234,0.18873-0.08036
		c0.05339-0.02802,0.10097-0.05445,0.14274-0.08035c0.04229-0.02538,0.08406-0.03806,0.12582-0.03806
		c0.05128,0,0.09304,0.01269,0.12582,0.03806c0.03225,0.0259,0.06767,0.06396,0.10467,0.11525l0.51702,0.83791
		c-0.25164,0.20988-0.54029,0.36794-0.86594,0.47527C27.35555,107.3615,27.01827,107.41489,26.66883,107.41489z"/>
	<path class="st0" d="M30.74687,103.9374c0.02802,0.36794,0.09304,0.68567,0.1956,0.95316
		c0.10256,0.26803,0.23737,0.48901,0.40495,0.66347c0.16758,0.17445,0.36689,0.30503,0.59738,0.3912
		c0.23049,0.08617,0.4853,0.12899,0.76444,0.12899c0.27966,0,0.5202-0.03225,0.72267-0.0978
		c0.203-0.06503,0.37957-0.13692,0.53077-0.21622c0.1512-0.07929,0.28389-0.15119,0.39808-0.21674
		c0.11419-0.06503,0.22468-0.0978,0.332-0.0978c0.14432,0,0.25111,0.05392,0.32089,0.16071l0.49588,0.62858
		c-0.19085,0.22362-0.40495,0.41076-0.64231,0.56196c-0.23737,0.15173-0.48531,0.27225-0.74382,0.36318
		c-0.25851,0.09093-0.52125,0.1549-0.78875,0.1919c-0.26803,0.03754-0.5276,0.05604-0.77871,0.05604
		c-0.49852,0-0.96162-0.08247-1.38983-0.24794c-0.42821-0.16494-0.80091-0.40971-1.11758-0.73325
		c-0.31666-0.32353-0.56566-0.72372-0.74699-1.2011c-0.18133-0.47684-0.27226-1.02982-0.27226-1.65839
		c0-0.48901,0.07877-0.94841,0.23737-1.37926c0.15807-0.43032,0.38539-0.80514,0.68091-1.12445
		c0.29552-0.31878,0.65659-0.57147,1.08216-0.75756c0.4261-0.18609,0.90664-0.27913,1.44217-0.27913
		c0.45147,0,0.86805,0.0719,1.25027,0.21622c0.38169,0.14433,0.70998,0.35526,0.98436,0.63227
		c0.2749,0.27702,0.49006,0.61694,0.64602,1.01925c0.15596,0.40284,0.2342,0.86277,0.2342,1.37926
		c0,0.26063-0.02802,0.43667-0.08406,0.52707c-0.05604,0.09093-0.16283,0.13639-0.32142,0.13639H30.74687z M34.03616,102.89701
		c0-0.22363-0.03119-0.43403-0.0941-0.63227c-0.06291-0.19772-0.15701-0.37112-0.28283-0.5202
		c-0.12582-0.14908-0.28548-0.26644-0.47844-0.35261c-0.19349-0.08617-0.41816-0.129-0.67403-0.129
		c-0.49799,0-0.89025,0.14169-1.17679,0.42557c-0.286,0.28442-0.46892,0.68726-0.54821,1.20851H34.03616z"/>
	<path class="st0" d="M38.50541,101.38136c0.22362-0.42822,0.48901-0.76443,0.79615-1.0092
		c0.30768-0.24424,0.67033-0.36636,1.08956-0.36636c0.33041,0,0.59579,0.07243,0.79615,0.21622l-0.11155,1.29203
		c-0.02379,0.08405-0.05709,0.14326-0.1015,0.17815c-0.04441,0.0349-0.10361,0.05234-0.17816,0.05234
		c-0.06978,0-0.1734-0.01163-0.31085-0.03489s-0.2712-0.03489-0.40125-0.03489c-0.19085,0-0.36107,0.02802-0.51015,0.08405
		c-0.14855,0.05551-0.28283,0.13586-0.40125,0.24054c-0.11895,0.10468-0.22362,0.23155-0.31455,0.38063
		c-0.0904,0.14908-0.17551,0.31931-0.25481,0.51015v4.41321h-1.72447v-7.16486h1.01237c0.1771,0,0.30027,0.03119,0.37006,0.0941
		c0.06978,0.0629,0.11631,0.17604,0.13956,0.33887L38.50541,101.38136z"/>
	<path class="st0" d="M44.11286,98.0503c0,0.14908-0.03013,0.28864-0.0904,0.41922
		c-0.06079,0.13058-0.14115,0.24424-0.24107,0.34204c-0.10044,0.0978-0.21781,0.17604-0.35261,0.23419
		c-0.13534,0.05815-0.27966,0.08723-0.43297,0.08723c-0.14908,0-0.2897-0.02908-0.42239-0.08723s-0.24794-0.13639-0.34574-0.23419
		s-0.17604-0.21146-0.23419-0.34204c-0.05816-0.13058-0.08723-0.27014-0.08723-0.41922c0-0.15331,0.02908-0.29764,0.08723-0.43297
		c0.05815-0.13481,0.13639-0.25111,0.23419-0.34892s0.21305-0.17551,0.34574-0.23419
		c0.13269-0.05815,0.27332-0.08723,0.42239-0.08723c0.15331,0,0.29763,0.02908,0.43297,0.08723
		c0.1348,0.05868,0.25217,0.13639,0.35261,0.23419c0.09991,0.0978,0.18027,0.2141,0.24107,0.34892
		C44.08273,97.75266,44.11286,97.89699,44.11286,98.0503z M43.87549,100.13849v7.16486h-1.73188v-7.16486H43.87549z"/>
	<path class="st0" d="M45.4678,101.13712c0.82365-0.75439,1.8154-1.13132,2.97474-1.13132
		c0.41869,0,0.79351,0.06873,1.12445,0.20618c0.33041,0.13745,0.60954,0.32829,0.83792,0.57253
		c0.22785,0.24424,0.40125,0.53659,0.5202,0.87651c0.11842,0.33993,0.17816,0.7121,0.17816,1.11705v4.52528h-0.78241
		c-0.16283,0-0.28865-0.02431-0.37693-0.07348c-0.08829-0.04864-0.1586-0.1475-0.20935-0.29658l-0.15384-0.51702
		c-0.18133,0.16335-0.35843,0.30662-0.53077,0.42979c-0.17234,0.12318-0.35156,0.22679-0.53764,0.31085
		c-0.18609,0.08353-0.38539,0.14749-0.59685,0.1919c-0.21199,0.04388-0.44619,0.06608-0.70205,0.06608
		c-0.30292,0-0.58205-0.0407-0.83792-0.12212c-0.2564-0.08141-0.47738-0.20354-0.66346-0.36636
		c-0.18609-0.16283-0.33094-0.36583-0.43297-0.60795c-0.10256-0.2416-0.15384-0.52337-0.15384-0.8448
		c0-0.18133,0.03013-0.36213,0.09093-0.54134c0.06027-0.17921,0.15966-0.34997,0.29658-0.51332
		c0.13745-0.16283,0.31561-0.31614,0.53447-0.46046c0.21886-0.14433,0.48742-0.27014,0.80673-0.37746
		c0.31878-0.10679,0.6899-0.19402,1.11388-0.26168c0.42345-0.06767,0.9077-0.10838,1.45221-0.12212v-0.41922
		c0-0.47949-0.10256-0.83422-0.30715-1.06471c-0.20512-0.23049-0.50064-0.34574-0.88708-0.34574
		c-0.27913,0-0.51068,0.03278-0.69466,0.0978c-0.18397,0.06503-0.34574,0.13851-0.4853,0.21992
		c-0.13957,0.08141-0.26645,0.15489-0.38063,0.21992s-0.24107,0.0978-0.38063,0.0978c-0.12106,0-0.22362-0.03172-0.30715-0.0941
		c-0.08406-0.06291-0.1512-0.13639-0.20248-0.22045L45.4678,101.13712z M49.42002,104.24455
		c-0.49799,0.02325-0.91722,0.0666-1.25714,0.12952c-0.3394,0.06239-0.61218,0.14274-0.81677,0.24054
		c-0.20512,0.0978-0.35155,0.21199-0.43984,0.34257c-0.08881,0.13005-0.13269,0.27225-0.13269,0.42557
		c0,0.30292,0.08934,0.51914,0.26856,0.64972c0.17921,0.13058,0.41341,0.1956,0.70205,0.1956
		c0.35367,0,0.65976-0.06397,0.91827-0.19244c0.25851-0.12793,0.51068-0.32195,0.75756-0.5831V104.24455z"/>
	<path class="st0" d="M54.46921,96.92638v10.37697h-1.725V96.92638H54.46921z"/>
	<path class="st0" d="M69.53218,100.13849l-2.27692,7.16486h-1.38244c-0.15859,0-0.26803-0.10255-0.32829-0.30714l-1.28516-4.14149
		c-0.04176-0.13956-0.08036-0.27807-0.11525-0.41499c-0.03489-0.13745-0.06396-0.27596-0.08723-0.41552
		c-0.02802,0.13956-0.05921,0.28018-0.0941,0.42239c-0.03489,0.14168-0.07348,0.28283-0.11525,0.42239l-1.30578,4.12721
		c-0.05604,0.20459-0.17921,0.30714-0.37006,0.30714h-1.32692l-2.26952-7.16486h1.37556c0.12582,0,0.23261,0.03013,0.32142,0.09093
		c0.08828,0.06026,0.14643,0.13745,0.17445,0.23049l1.02665,3.82641c0.05128,0.20988,0.09621,0.41447,0.13586,0.61482
		c0.03965,0.20036,0.07348,0.40019,0.1015,0.60056c0.05128-0.20036,0.10573-0.40019,0.16388-0.60056
		c0.05815-0.20036,0.12001-0.40495,0.18503-0.61482l1.18736-3.84068c0.02802-0.09304,0.08247-0.1697,0.16388-0.23049
		c0.08141-0.06026,0.1808-0.0904,0.2971-0.0904h0.76127c0.12106,0,0.22414,0.03014,0.31084,0.0904
		c0.08564,0.06079,0.14274,0.13745,0.17075,0.23049l1.15247,3.84068c0.06026,0.20988,0.11736,0.41552,0.17075,0.61852
		c0.05339,0.20248,0.10626,0.40389,0.15754,0.60372c0.06026-0.39543,0.14644-0.80302,0.25798-1.22224l1.05467-3.82641
		c0.03225-0.09304,0.09093-0.17023,0.17445-0.23049c0.08405-0.0608,0.18398-0.09093,0.30028-0.09093H69.53218z"/>
	<path class="st0" d="M70.25168,101.13712c0.82365-0.75439,1.8154-1.13132,2.97475-1.13132
		c0.41869,0,0.79351,0.06873,1.12444,0.20618c0.33041,0.13745,0.60954,0.32829,0.83792,0.57253
		c0.22785,0.24424,0.40125,0.53659,0.5202,0.87651c0.11842,0.33993,0.17816,0.7121,0.17816,1.11705v4.52528h-0.78241
		c-0.16283,0-0.28865-0.02431-0.37694-0.07348c-0.08828-0.04864-0.15859-0.1475-0.20934-0.29658l-0.15384-0.51702
		c-0.18133,0.16335-0.35843,0.30662-0.53077,0.42979s-0.35155,0.22679-0.53764,0.31085
		c-0.18609,0.08353-0.38539,0.14749-0.59685,0.1919c-0.212,0.04388-0.44619,0.06608-0.70206,0.06608
		c-0.30292,0-0.58205-0.0407-0.83792-0.12212c-0.25639-0.08141-0.47737-0.20354-0.66346-0.36636s-0.33094-0.36583-0.43297-0.60795
		c-0.10256-0.2416-0.15384-0.52337-0.15384-0.8448c0-0.18133,0.03014-0.36213,0.09093-0.54134
		c0.06026-0.17921,0.15965-0.34997,0.29658-0.51332c0.13745-0.16283,0.31561-0.31614,0.53447-0.46046
		c0.21886-0.14433,0.48742-0.27014,0.80672-0.37746c0.31878-0.10679,0.6899-0.19402,1.11388-0.26168
		c0.42345-0.06767,0.90771-0.10838,1.45222-0.12212v-0.41922c0-0.47949-0.10255-0.83422-0.30714-1.06471
		c-0.20512-0.23049-0.50064-0.34574-0.88708-0.34574c-0.27913,0-0.51068,0.03278-0.69466,0.0978
		c-0.18397,0.06503-0.34574,0.13851-0.48531,0.21992s-0.26644,0.15489-0.38063,0.21992s-0.24107,0.0978-0.38063,0.0978
		c-0.12106,0-0.22362-0.03172-0.30715-0.0941c-0.08405-0.06291-0.15119-0.13639-0.20247-0.22045L70.25168,101.13712z
		 M74.2039,104.24455c-0.49799,0.02325-0.91721,0.0666-1.25714,0.12952c-0.33939,0.06239-0.61218,0.14274-0.81677,0.24054
		c-0.20512,0.0978-0.35155,0.21199-0.43984,0.34257c-0.08881,0.13005-0.13269,0.27225-0.13269,0.42557
		c0,0.30292,0.08934,0.51914,0.26855,0.64972s0.41341,0.1956,0.70206,0.1956c0.35367,0,0.65976-0.06397,0.91827-0.19244
		c0.25851-0.12793,0.51068-0.32195,0.75756-0.5831V104.24455z"/>
	<path class="st0" d="M79.13361,101.38136c0.22362-0.42822,0.48901-0.76443,0.79616-1.0092
		c0.30767-0.24424,0.67033-0.36636,1.08955-0.36636c0.33041,0,0.59579,0.07243,0.79616,0.21622l-0.11155,1.29203
		c-0.02379,0.08405-0.05709,0.14326-0.1015,0.17815c-0.0444,0.0349-0.10361,0.05234-0.17815,0.05234
		c-0.06979,0-0.1734-0.01163-0.31085-0.03489s-0.2712-0.03489-0.40125-0.03489c-0.19085,0-0.36108,0.02802-0.51015,0.08405
		c-0.14855,0.05551-0.28283,0.13586-0.40125,0.24054c-0.11894,0.10468-0.22362,0.23155-0.31454,0.38063
		c-0.0904,0.14908-0.17551,0.31931-0.25481,0.51015v4.41321h-1.72447v-7.16486h1.01237c0.1771,0,0.30028,0.03119,0.37006,0.0941
		c0.06979,0.0629,0.1163,0.17604,0.13956,0.33887L79.13361,101.38136z"/>
	<path class="st0" d="M84.34298,101.38136c0.22363-0.42822,0.48901-0.76443,0.79616-1.0092
		c0.30768-0.24424,0.67033-0.36636,1.08955-0.36636c0.33041,0,0.59579,0.07243,0.79616,0.21622l-0.11155,1.29203
		c-0.02379,0.08405-0.05709,0.14326-0.1015,0.17815c-0.0444,0.0349-0.10361,0.05234-0.17815,0.05234
		c-0.06979,0-0.1734-0.01163-0.31085-0.03489s-0.2712-0.03489-0.40125-0.03489c-0.19085,0-0.36108,0.02802-0.51015,0.08405
		c-0.14855,0.05551-0.28283,0.13586-0.40125,0.24054c-0.11894,0.10468-0.22362,0.23155-0.31454,0.38063
		c-0.0904,0.14908-0.17551,0.31931-0.25481,0.51015v4.41321h-1.72447v-7.16486h1.01237c0.1771,0,0.30028,0.03119,0.37006,0.0941
		c0.06979,0.0629,0.11631,0.17604,0.13956,0.33887L84.34298,101.38136z"/>
	<path class="st0" d="M87.66769,101.13712c0.82365-0.75439,1.8154-1.13132,2.97474-1.13132
		c0.41869,0,0.79351,0.06873,1.12445,0.20618c0.33041,0.13745,0.60954,0.32829,0.83792,0.57253
		c0.22784,0.24424,0.40125,0.53659,0.5202,0.87651c0.11842,0.33993,0.17815,0.7121,0.17815,1.11705v4.52528h-0.78241
		c-0.16283,0-0.28864-0.02431-0.37693-0.07348c-0.08829-0.04864-0.15859-0.1475-0.20934-0.29658l-0.15384-0.51702
		c-0.18134,0.16335-0.35843,0.30662-0.53077,0.42979c-0.17235,0.12318-0.35156,0.22679-0.53764,0.31085
		c-0.18609,0.08353-0.38539,0.14749-0.59686,0.1919c-0.21199,0.04388-0.44618,0.06608-0.70205,0.06608
		c-0.30293,0-0.58205-0.0407-0.83792-0.12212c-0.2564-0.08141-0.47738-0.20354-0.66346-0.36636
		c-0.18609-0.16283-0.33094-0.36583-0.43297-0.60795c-0.10256-0.2416-0.15384-0.52337-0.15384-0.8448
		c0-0.18133,0.03013-0.36213,0.09093-0.54134c0.06026-0.17921,0.15965-0.34997,0.29658-0.51332
		c0.13744-0.16283,0.31561-0.31614,0.53447-0.46046c0.21886-0.14433,0.48742-0.27014,0.80672-0.37746
		c0.31878-0.10679,0.6899-0.19402,1.11388-0.26168c0.42345-0.06767,0.9077-0.10838,1.45222-0.12212v-0.41922
		c0-0.47949-0.10256-0.83422-0.30715-1.06471c-0.20512-0.23049-0.50063-0.34574-0.88708-0.34574
		c-0.27914,0-0.51068,0.03278-0.69466,0.0978s-0.34574,0.13851-0.48531,0.21992s-0.26644,0.15489-0.38063,0.21992
		s-0.24107,0.0978-0.38063,0.0978c-0.12106,0-0.22363-0.03172-0.30715-0.0941c-0.08405-0.06291-0.15119-0.13639-0.20248-0.22045
		L87.66769,101.13712z M91.61992,104.24455c-0.49799,0.02325-0.91722,0.0666-1.25714,0.12952
		c-0.3394,0.06239-0.61218,0.14274-0.81677,0.24054c-0.20512,0.0978-0.35155,0.21199-0.43984,0.34257
		c-0.08881,0.13005-0.13269,0.27225-0.13269,0.42557c0,0.30292,0.08934,0.51914,0.26855,0.64972s0.41341,0.1956,0.70206,0.1956
		c0.35367,0,0.65976-0.06397,0.91827-0.19244c0.25851-0.12793,0.51068-0.32195,0.75756-0.5831V104.24455z"/>
	<path class="st0" d="M96.53588,101.01817c0.14433-0.14432,0.29658-0.27807,0.45729-0.40125
		c0.16071-0.12318,0.33041-0.22838,0.51015-0.31455c0.17869-0.08564,0.37112-0.15331,0.57571-0.20248
		c0.20512-0.04864,0.42821-0.07295,0.67033-0.07295c0.3912,0,0.73801,0.06608,1.04092,0.19878
		c0.30239,0.13269,0.55508,0.31878,0.75756,0.55878c0.20248,0.24001,0.35632,0.52602,0.46099,0.85907
		c0.10467,0.33252,0.15701,0.69941,0.15701,1.0996v4.56017h-1.725v-4.56017c0-0.43773-0.09991-0.77607-0.30028-1.01608
		c-0.20036-0.23949-0.50487-0.35949-0.91457-0.35949c-0.29816,0-0.57729,0.06767-0.83791,0.20248
		c-0.26116,0.1348-0.50751,0.31878-0.74065,0.55138v5.18188h-1.72447v-7.16486h1.05414c0.22362,0,0.37006,0.10467,0.43983,0.31402
		L96.53588,101.01817z"/>
	<path class="st0" d="M105.09058,107.41489c-0.62381,0-1.10224-0.17551-1.43477-0.52707
		c-0.33305-0.35155-0.49958-0.83686-0.49958-1.45592v-4.00139h-0.73325c-0.09304,0-0.17234-0.03014-0.23737-0.09093
		c-0.06503-0.06027-0.0978-0.1512-0.0978-0.27226v-0.68461l1.15247-0.18819l0.36318-1.9555
		c0.02326-0.09305,0.06714-0.16547,0.13269-0.21675c0.06503-0.05075,0.14855-0.07665,0.25111-0.07665h0.89396v2.25577h1.9132
		v1.22913h-1.9132v3.88244c0,0.22363,0.05445,0.39808,0.16388,0.5239c0.10944,0.12582,0.25957,0.18873,0.45042,0.18873
		c0.10732,0,0.19666-0.01321,0.26908-0.03859c0.0719-0.02538,0.13481-0.05234,0.18874-0.08036
		c0.05339-0.02802,0.10097-0.05445,0.14273-0.08035c0.0423-0.02538,0.08406-0.03806,0.12582-0.03806
		c0.05128,0,0.09304,0.01269,0.12582,0.03806c0.03225,0.0259,0.06767,0.06396,0.10468,0.11525l0.51703,0.83791
		c-0.25164,0.20988-0.54029,0.36794-0.86594,0.47527C105.7773,107.3615,105.44002,107.41489,105.09058,107.41489z"/>
	<path class="st0" d="M114.40654,100.13849l-3.90359,9.1341c-0.05128,0.12106-0.11789,0.21304-0.1993,0.27596
		s-0.20564,0.0941-0.37323,0.0941h-1.28516l1.34067-2.87694l-2.89809-6.62722h1.51566c0.1348,0,0.24054,0.03278,0.31772,0.0978
		c0.07665,0.06502,0.13375,0.13956,0.17075,0.22362l1.52253,3.71486c0.05128,0.12582,0.0941,0.25164,0.12899,0.37693
		c0.03542,0.12582,0.06873,0.25429,0.1015,0.38433c0.04176-0.13004,0.08406-0.25957,0.12582-0.3875
		c0.04176-0.12793,0.08829-0.25481,0.13956-0.38063l1.43847-3.70798c0.03754-0.09304,0.09886-0.17023,0.18503-0.23049
		c0.08617-0.0608,0.18291-0.09093,0.2897-0.09093H114.40654z"/>
</g>
</svg>
