<?xml version="1.0" encoding="utf-8"?>
<!-- Generator: Adobe Illustrator 24.3.0, SVG Export Plug-In . SVG Version: 6.00 Build 0)  -->
<svg width="120px" height="112px" version="1.1" id="Layer_1" xmlns="http://www.w3.org/2000/svg" xmlns:xlink="http://www.w3.org/1999/xlink" x="0px" y="0px"
	 viewBox="0 0 106 112" style="enable-background:new 0 0 106 112;" xml:space="preserve">
<style type="text/css">
	.st0{fill:#F70114;}
	.st1{fill:#646564;}
</style>
<path class="st0" d="M53.7,51.8L53.7,51.8c-0.5,0-0.9-0.2-1.2-0.6c-1.4-1.4-2.7-2.7-4-4.1c-1.6-1.6-3.3-3.3-4.9-4.9
	c-1-1-1.6-2.4-1.5-3.5c0.1-2.8,1.2-4.7,3.5-5.7c2.2-1,4.4-0.6,6.2,1.1c0.6,0.6,1.3,1.2,1.9,1.9l0.1,0.1l0.1-0.1
	c0.6-0.6,1.2-1.3,1.8-1.9l0,0c2.2-2.2,5.8-2.2,8,0c0,0,0,0,0,0c1.1,1.1,1.7,2.5,1.7,4.1c0,1.5-0.5,3-1.6,4.1
	c-1.8,1.8-3.7,3.7-5.5,5.5l-3.4,3.4C54.6,51.5,54.1,51.8,53.7,51.8z M47.8,34.5c-0.5,0-1.1,0.1-1.5,0.4c-1.5,0.7-2.2,1.8-2.2,3.9
	v0.1c-0.1,0.5,0.2,1.3,0.9,2.1l4.9,4.9l3.8,3.8l3.2-3.2c1.8-1.8,3.7-3.7,5.4-5.5c0.7-0.7,1.1-1.7,1-2.7c0-1-0.4-2-1.1-2.6
	c-1.4-1.4-3.7-1.5-5.2-0.1c0,0,0,0-0.1,0.1l0,0l-1.8,1.8c-0.4,0.5-0.9,0.8-1.5,0.8l0,0c-0.5,0-1.1-0.2-1.6-0.8
	c-0.6-0.7-1.2-1.3-1.8-1.8C49.6,34.9,48.7,34.6,47.8,34.5z"/>
<path class="st1" d="M70.3,63.4H36.1c-2.5,0-4.4-2.2-4.4-4.8V40.1h-3.1c-1.7,0-3.3-1-4.1-2.5c-0.5-1.4-0.2-2.7,0.9-3.8L50,9.1
	c0.8-0.8,2-1.3,3.2-1.3c1.2,0,2.3,0.5,3.2,1.3c2.8,2.8,5.7,5.5,8.4,8.2c2.5,2.5,5.2,5,7.7,7.5c2.3,2.3,5,5,7.7,8
	c1.5,1.6,2.1,3.7,1.4,5.2c-0.4,0.8-1.2,2-3.8,2h-3.1v18.5C74.7,61.3,72.7,63.4,70.3,63.4z M53.2,9.8c-0.6,0-1.3,0.2-1.7,0.7
	L26.9,35.1c-0.5,0.5-0.7,1.1-0.5,1.6c0.3,0.8,1.2,1.3,2.2,1.3h3.7c0.8,0,1.4,0.8,1.4,1.8v18.8c0,1.6,1.1,2.8,2.4,2.8h34.2
	c1.4,0,2.4-1.3,2.4-2.8V39.8c0-0.9,0.6-1.8,1.4-1.8h3.7c0.7,0,1.6-0.1,1.9-0.8c0.4-0.8-0.1-2.1-1-3.1c-2.6-2.9-5.4-5.6-7.7-7.8
	c-2.5-2.5-5.2-5.1-7.7-7.5c-2.8-2.7-5.7-5.5-8.5-8.3C54.4,10,53.8,9.8,53.2,9.8z"/>
<g>
	<path class="st1" d="M26.2,102.1l-0.2,0.2c-0.1,0.1-0.1,0.1-0.2,0.1s-0.2,0-0.2-0.1c-0.1-0.1-0.2-0.1-0.3-0.2
		c-0.1-0.1-0.3-0.1-0.4-0.2c-0.2-0.1-0.4-0.1-0.6-0.1c-0.3,0-0.6,0.1-0.8,0.2c-0.2,0.1-0.4,0.3-0.6,0.5c-0.2,0.2-0.3,0.5-0.4,0.8
		c-0.1,0.3-0.1,0.7-0.1,1c0,0.3,0,0.7,0.1,1c0.1,0.3,0.2,0.5,0.4,0.8c0.2,0.2,0.4,0.3,0.6,0.5c0.2,0.1,0.5,0.2,0.8,0.2
		c0.2,0,0.4,0,0.6-0.1c0.2,0,0.3-0.1,0.4-0.2c0.1-0.1,0.2-0.1,0.3-0.2c0.1-0.1,0.2-0.1,0.3-0.1c0.1,0,0.2,0.1,0.3,0.2l0.5,0.6
		c-0.2,0.2-0.4,0.4-0.6,0.6c-0.2,0.2-0.4,0.3-0.7,0.4c-0.2,0.1-0.5,0.2-0.8,0.2c-0.3,0-0.5,0.1-0.8,0.1c-0.4,0-0.8-0.1-1.2-0.2
		c-0.4-0.2-0.8-0.4-1.1-0.7c-0.3-0.3-0.6-0.7-0.7-1.2c-0.2-0.5-0.3-1.1-0.2-1.6c0-0.5,0.1-1,0.2-1.5c0.1-0.4,0.4-0.8,0.6-1.2
		c0.3-0.4,0.7-0.6,1.1-0.8c0.5-0.2,1-0.3,1.5-0.3c0.5,0,1,0.1,1.4,0.2c0.4,0.2,0.8,0.4,1.1,0.8L26.2,102.1z"/>
	<path class="st1" d="M29.4,100.5v4.6c0,0.4,0.1,0.7,0.3,1c0.2,0.3,0.6,0.4,0.9,0.4c0.3,0,0.6-0.1,0.8-0.2c0.3-0.1,0.5-0.3,0.8-0.5
		v-5.2H34v7.2h-1.1c-0.2,0-0.4-0.1-0.5-0.3l-0.1-0.6c-0.1,0.2-0.3,0.3-0.5,0.4c-0.2,0.1-0.3,0.2-0.5,0.3c-0.2,0.1-0.4,0.2-0.6,0.2
		c-0.2,0-0.4,0.1-0.6,0.1c-0.4,0-0.7-0.1-1.1-0.2c-0.3-0.1-0.6-0.3-0.8-0.6c-0.2-0.3-0.4-0.6-0.5-0.9c-0.1-0.4-0.2-0.7-0.2-1.1v-4.6
		C27.6,100.5,29.4,100.5,29.4,100.5z"/>
	<path class="st1" d="M40.1,102l-0.2,0.2c0,0-0.1,0.1-0.2,0.1c-0.1,0-0.2,0-0.3-0.1l-0.4-0.2c-0.1-0.1-0.3-0.1-0.4-0.2
		c-0.2-0.1-0.4-0.1-0.6-0.1c-0.3,0-0.6,0.1-0.8,0.2c-0.2,0.1-0.3,0.4-0.3,0.6c0,0.2,0.1,0.3,0.2,0.4c0.1,0.1,0.3,0.2,0.4,0.3
		c0.2,0.1,0.4,0.2,0.6,0.2c0.2,0.1,0.4,0.1,0.6,0.2c0.2,0.1,0.4,0.2,0.6,0.2c0.2,0.1,0.4,0.2,0.6,0.4c0.2,0.2,0.3,0.3,0.4,0.5
		c0.1,0.2,0.2,0.5,0.2,0.8c0,0.3-0.1,0.6-0.2,0.9c-0.1,0.3-0.3,0.6-0.5,0.8c-0.3,0.2-0.6,0.4-0.9,0.5c-0.4,0.1-0.8,0.2-1.2,0.2
		c-0.2,0-0.5,0-0.7-0.1l-0.7-0.2c-0.2-0.1-0.4-0.2-0.6-0.3c-0.2-0.1-0.3-0.2-0.5-0.4l0.4-0.6l0.2-0.2c0.1-0.1,0.2-0.1,0.3-0.1
		c0.1,0,0.2,0,0.3,0.1l0.4,0.2c0.2,0.1,0.3,0.1,0.5,0.2c0.2,0.1,0.4,0.1,0.6,0.1c0.2,0,0.4,0,0.5-0.1c0.1,0,0.2-0.1,0.4-0.2
		c0.1-0.1,0.2-0.2,0.2-0.3c0-0.1,0.1-0.2,0.1-0.4c0-0.2-0.1-0.3-0.2-0.4c-0.1-0.1-0.3-0.2-0.4-0.3c-0.2-0.1-0.4-0.2-0.6-0.2
		c-0.2-0.1-0.4-0.1-0.6-0.2c-0.2-0.1-0.5-0.2-0.6-0.2c-0.4-0.2-0.8-0.6-1-1c-0.1-0.3-0.2-0.5-0.2-0.8c0-0.3,0.1-0.6,0.2-0.8
		c0.1-0.3,0.3-0.5,0.5-0.7c0.3-0.2,0.5-0.3,0.8-0.5c0.4-0.1,0.8-0.2,1.2-0.2c0.5,0,0.9,0.1,1.4,0.2c0.4,0.1,0.7,0.4,1,0.6L40.1,102z
		"/>
	<path class="st1" d="M44.4,107.9c-1,0.1-1.9-0.6-2-1.7c0-0.1,0-0.2,0-0.3v-4.1h-0.7c-0.1,0-0.2,0-0.2-0.1c-0.1-0.1-0.1-0.2-0.1-0.3
		v-0.7l1.2-0.2l0.4-1.9c0-0.1,0-0.2,0.1-0.2c0.1,0,0.2-0.1,0.2-0.1h0.9v2.3H46v1.2h-1.9v3.9c0,0.2,0,0.4,0.2,0.5
		c0.1,0.1,0.3,0.2,0.5,0.2c0.1,0,0.2,0,0.3-0.1c0.1,0,0.1-0.1,0.2-0.1c0,0,0.1,0,0.1-0.1c0.1,0,0.1-0.1,0.1-0.1s0.1,0,0.1,0.1
		c0.1,0,0.1,0.1,0.1,0.1l0.5,0.8c-0.3,0.2-0.6,0.4-0.9,0.5C45,107.8,44.7,107.9,44.4,107.9z"/>
	<path class="st1" d="M50.6,100.4c0.5,0,1,0.1,1.5,0.2c0.4,0.2,0.8,0.4,1.1,0.8c0.3,0.3,0.6,0.7,0.7,1.2c0.2,0.5,0.2,1,0.2,1.5
		c0,0.5-0.1,1-0.2,1.5c-0.2,0.4-0.4,0.8-0.7,1.2c-0.3,0.3-0.7,0.6-1.1,0.8c-1,0.3-2,0.3-2.9,0c-0.4-0.2-0.8-0.4-1.1-0.8
		c-0.3-0.3-0.5-0.7-0.7-1.2c-0.2-0.5-0.2-1-0.2-1.5c0-0.5,0.1-1,0.2-1.5c0.2-0.4,0.4-0.8,0.7-1.2c0.3-0.3,0.7-0.6,1.1-0.8
		C49.6,100.5,50.1,100.4,50.6,100.4z M50.6,106.6c0.5,0,1-0.2,1.4-0.6c0.3-0.4,0.4-1,0.4-1.8s-0.1-1.4-0.4-1.8
		c-0.3-0.4-0.7-0.6-1.4-0.6c-0.5,0-1,0.2-1.4,0.6c-0.3,0.4-0.4,1-0.4,1.8s0.1,1.4,0.4,1.8C49.5,106.4,50,106.6,50.6,106.6z"/>
	<path class="st1" d="M55.5,107.7v-7.2h1.1c0.2,0,0.4,0.1,0.5,0.3l0.1,0.5c0.1-0.2,0.3-0.3,0.4-0.4c0.1-0.1,0.3-0.2,0.5-0.3
		c0.2-0.1,0.3-0.1,0.5-0.2c0.2-0.1,0.4-0.1,0.6-0.1c0.4,0,0.8,0.1,1.1,0.4c0.3,0.3,0.5,0.6,0.6,1c0.1-0.2,0.2-0.4,0.4-0.6
		c0.2-0.2,0.3-0.3,0.5-0.4c0.2-0.1,0.4-0.2,0.6-0.2c0.6-0.1,1.2-0.1,1.8,0.1c0.3,0.1,0.6,0.3,0.8,0.5c0.2,0.3,0.4,0.6,0.5,0.9
		c0.1,0.4,0.2,0.8,0.2,1.2v4.6h-1.8v-4.6c0-0.4-0.1-0.7-0.3-1.1c-0.2-0.3-0.5-0.4-0.9-0.4c-0.2,0-0.3,0-0.5,0.1
		c-0.1,0.1-0.3,0.1-0.4,0.2c-0.1,0.1-0.2,0.3-0.3,0.4c-0.1,0.2-0.1,0.4-0.1,0.6v4.6h-1.8v-4.6c0-0.4-0.1-0.7-0.3-1.1
		c-0.2-0.3-0.5-0.4-0.9-0.4c-0.2,0-0.5,0.1-0.7,0.2c-0.2,0.1-0.4,0.3-0.6,0.5v5.3L55.5,107.7z"/>
	<path class="st1" d="M70.3,100.4c0.4,0,0.8,0.1,1.2,0.2c0.4,0.1,0.7,0.4,1,0.6c0.3,0.3,0.5,0.6,0.6,1c0.2,0.5,0.3,0.9,0.2,1.4v0.4
		c0,0.1,0,0.1-0.1,0.2l-0.1,0.1c-0.1,0-0.1,0.1-0.2,0.1h-4.5c0.1,0.8,0.2,1.3,0.6,1.6c0.4,0.4,0.8,0.5,1.4,0.5c0.2,0,0.5,0,0.7-0.1
		c0.2-0.1,0.4-0.1,0.5-0.2c0.1-0.1,0.3-0.1,0.4-0.2c0.1-0.1,0.2-0.1,0.4-0.1c0.1,0,0.1,0,0.2,0.1c0.1,0,0.1,0.1,0.1,0.1l0.5,0.6
		c-0.2,0.2-0.4,0.4-0.6,0.6c-0.2,0.2-0.5,0.3-0.8,0.4c-0.3,0.1-0.5,0.1-0.8,0.2c-0.3,0-0.5,0.1-0.8,0.1c-0.5,0-1-0.1-1.4-0.2
		c-0.4-0.2-0.8-0.4-1.1-0.8c-0.3-0.4-0.6-0.8-0.8-1.2c-0.2-0.5-0.3-1.1-0.3-1.6c0-0.5,0.1-1,0.2-1.4c0.2-0.4,0.4-0.8,0.7-1.1
		c0.3-0.3,0.7-0.6,1.1-0.8C69.3,100.5,69.8,100.4,70.3,100.4z M70.3,101.7c-0.4,0-0.9,0.1-1.2,0.4c-0.3,0.3-0.5,0.8-0.5,1.2h3.3
		c0-0.2-0.1-0.4-0.1-0.6c-0.1-0.2-0.2-0.4-0.3-0.5c-0.1-0.2-0.3-0.3-0.5-0.4C70.8,101.7,70.6,101.7,70.3,101.7z"/>
	<path class="st1" d="M74.9,107.7v-7.2h1c0.2,0,0.4,0.1,0.5,0.4c0,0,0,0.1,0,0.1l0.1,0.9c0.2-0.4,0.5-0.8,0.9-1.1
		c0.3-0.2,0.8-0.4,1.2-0.4c0.3,0,0.6,0.1,0.9,0.2l-0.2,1.3c0,0.1-0.1,0.1-0.1,0.2c0,0-0.1,0.1-0.2,0.1c-0.1,0-0.2,0-0.3-0.1
		c-0.2-0.1-0.3-0.1-0.5-0.1c-0.3,0-0.7,0.1-0.9,0.3c-0.3,0.2-0.5,0.5-0.6,0.9v4.5C76.5,107.7,74.9,107.7,74.9,107.7z"/>
	<path class="st1" d="M84.9,102l-0.2,0.2c0,0-0.1,0.1-0.2,0.1c-0.1,0-0.2,0-0.3-0.1l-0.4-0.2c-0.1-0.1-0.3-0.1-0.4-0.2
		c-0.2-0.1-0.4-0.1-0.6-0.1c-0.3,0-0.6,0.1-0.8,0.2c-0.2,0.1-0.3,0.4-0.3,0.6c0,0.2,0.1,0.3,0.2,0.4c0.1,0.1,0.3,0.2,0.4,0.3
		c0.2,0.1,0.4,0.2,0.6,0.2c0.2,0.1,0.4,0.1,0.6,0.2c0.2,0.1,0.4,0.2,0.6,0.2c0.2,0.1,0.4,0.2,0.6,0.4c0.2,0.2,0.3,0.3,0.4,0.5
		c0.1,0.2,0.2,0.5,0.2,0.8c0,0.3-0.1,0.6-0.2,0.9c-0.1,0.3-0.3,0.6-0.5,0.8c-0.3,0.2-0.6,0.4-0.9,0.5c-0.4,0.1-0.8,0.2-1.2,0.2
		c-0.2,0-0.5,0-0.7-0.1l-0.7-0.2c-0.2-0.1-0.4-0.2-0.6-0.3c-0.2-0.1-0.3-0.2-0.5-0.4l0.4-0.6l0.2-0.2c0.1-0.1,0.2-0.1,0.3-0.1
		c0.1,0,0.2,0,0.3,0.1l0.4,0.2c0.2,0.1,0.3,0.1,0.5,0.2c0.2,0.1,0.4,0.1,0.6,0.1c0.2,0,0.4,0,0.5-0.1c0.1,0,0.2-0.1,0.4-0.2
		c0.1-0.1,0.2-0.2,0.2-0.3c0-0.1,0.1-0.2,0.1-0.4c0-0.2-0.1-0.3-0.2-0.4c-0.1-0.1-0.3-0.2-0.4-0.3c-0.2-0.1-0.4-0.2-0.6-0.2
		c-0.2-0.1-0.4-0.1-0.6-0.2c-0.2-0.1-0.5-0.2-0.6-0.2c-0.4-0.2-0.8-0.6-1-1c-0.1-0.3-0.2-0.5-0.2-0.8c0-0.3,0.1-0.6,0.2-0.8
		c0.1-0.3,0.3-0.5,0.5-0.7c0.3-0.2,0.5-0.3,0.8-0.5c0.4-0.1,0.8-0.2,1.2-0.2c0.5,0,0.9,0.1,1.4,0.2c0.4,0.1,0.7,0.4,1,0.6L84.9,102z
		"/>
</g>
<g>
	<path class="st1" d="M60.3,91.8V81.4h1.8v4c0.3-0.3,0.6-0.5,0.9-0.6c0.4-0.2,0.8-0.3,1.2-0.2c0.4,0,0.7,0.1,1.1,0.2
		c0.3,0.1,0.6,0.3,0.8,0.6c0.2,0.3,0.4,0.6,0.5,0.9c0.1,0.4,0.2,0.7,0.2,1.1v4.6h-1.8v-4.6c0-0.4-0.1-0.7-0.3-1
		c-0.2-0.3-0.6-0.4-0.9-0.4c-0.3,0-0.6,0.1-0.8,0.2c-0.3,0.1-0.5,0.3-0.8,0.5v5.2L60.3,91.8z"/>
	<path class="st1" d="M74,91.8h-0.8c-0.1,0-0.3,0-0.4-0.1c-0.1-0.1-0.2-0.2-0.2-0.3L72.4,91c-0.2,0.2-0.3,0.3-0.5,0.4
		c-0.2,0.1-0.3,0.2-0.5,0.3c-0.2,0.1-0.4,0.1-0.6,0.2c-0.2,0-0.5,0.1-0.7,0.1c-0.3,0-0.6,0-0.8-0.1c-0.2-0.1-0.5-0.2-0.6-0.4
		c-0.2-0.2-0.3-0.4-0.4-0.6c-0.1-0.3-0.2-0.6-0.2-0.9c0-0.3,0.1-0.6,0.2-0.8c0.1-0.3,0.4-0.6,0.7-0.7c0.4-0.3,0.9-0.4,1.4-0.5
		c0.7-0.2,1.4-0.2,2.1-0.2v-0.4c0-0.4-0.1-0.7-0.3-1.1c-0.2-0.2-0.6-0.4-0.9-0.4c-0.2,0-0.5,0-0.7,0.1c-0.2,0-0.3,0.1-0.5,0.2
		c-0.1,0.1-0.3,0.2-0.4,0.2c-0.1,0.1-0.3,0.1-0.4,0.1c-0.1,0-0.2,0-0.3-0.1c-0.1-0.1-0.2-0.1-0.2-0.2l-0.3-0.5
		c0.8-0.8,1.9-1.2,3-1.1c0.4,0,0.8,0.1,1.1,0.2c0.3,0.1,0.6,0.3,0.8,0.6c0.2,0.2,0.4,0.6,0.5,0.9c0.1,0.4,0.2,0.7,0.2,1.1
		C74.1,87.4,74,91.8,74,91.8z M70.7,90.8c0.2,0,0.3,0,0.5-0.1c0.1,0,0.3-0.1,0.4-0.1c0.1-0.1,0.3-0.1,0.4-0.2l0.4-0.4v-1.2
		c-0.4,0-0.9,0-1.3,0.1c-0.3,0-0.6,0.1-0.8,0.2c-0.2,0.1-0.3,0.2-0.4,0.4c-0.1,0.1-0.1,0.3-0.1,0.4c0,0.3,0.1,0.5,0.3,0.6
		C70.1,90.7,70.4,90.8,70.7,90.8L70.7,90.8z"/>
	<path class="st1" d="M75.7,94.2v-9.6h1.1c0.1,0,0.2,0,0.3,0.1c0.1,0.1,0.1,0.1,0.2,0.2l0.1,0.6c0.3-0.3,0.6-0.6,1-0.8
		c0.4-0.2,0.9-0.3,1.4-0.3c0.4,0,0.7,0.1,1.1,0.2c0.3,0.2,0.6,0.4,0.8,0.7c0.3,0.4,0.4,0.8,0.5,1.2c0.1,0.5,0.2,1.1,0.2,1.6
		c0,0.5-0.1,1-0.2,1.5c-0.3,0.9-0.9,1.6-1.6,1.9c-0.4,0.2-0.8,0.3-1.3,0.3c-0.4,0-0.7-0.1-1.1-0.2c-0.3-0.1-0.6-0.3-0.8-0.5v2.9
		L75.7,94.2z M79.1,85.9c-0.3,0-0.7,0.1-0.9,0.2c-0.3,0.2-0.5,0.4-0.7,0.6V90c0.2,0.2,0.4,0.4,0.6,0.5c0.2,0.1,0.5,0.1,0.8,0.1
		c0.2,0,0.5-0.1,0.7-0.2c0.2-0.1,0.4-0.3,0.5-0.5c0.2-0.2,0.3-0.5,0.4-0.8c0.2-0.7,0.2-1.4,0-2.1c-0.1-0.3-0.2-0.5-0.3-0.7
		c-0.1-0.2-0.3-0.3-0.5-0.4C79.5,85.9,79.3,85.9,79.1,85.9z"/>
	<path class="st1" d="M83.7,94.2v-9.6h1.1c0.1,0,0.2,0,0.3,0.1c0.1,0.1,0.1,0.1,0.2,0.2l0.1,0.6c0.3-0.3,0.6-0.6,1-0.8
		c0.4-0.2,0.9-0.3,1.4-0.3c0.4,0,0.7,0.1,1.1,0.2c0.3,0.2,0.6,0.4,0.8,0.7c0.3,0.4,0.4,0.8,0.5,1.2c0.1,0.5,0.2,1.1,0.2,1.6
		c0,0.5-0.1,1-0.2,1.5c-0.3,0.9-0.9,1.6-1.6,1.9c-0.4,0.2-0.8,0.3-1.3,0.3c-0.4,0-0.7-0.1-1.1-0.2c-0.3-0.1-0.6-0.3-0.8-0.5v2.9
		L83.7,94.2z M87.1,85.9c-0.3,0-0.7,0.1-0.9,0.2c-0.3,0.2-0.5,0.4-0.7,0.6V90c0.2,0.2,0.4,0.4,0.6,0.5c0.2,0.1,0.5,0.1,0.8,0.1
		c0.2,0,0.5-0.1,0.7-0.2c0.2-0.1,0.4-0.3,0.5-0.5c0.2-0.2,0.3-0.5,0.4-0.8c0.2-0.7,0.2-1.4,0-2.1c-0.1-0.3-0.2-0.5-0.3-0.7
		c-0.1-0.2-0.3-0.3-0.5-0.4C87.5,85.9,87.3,85.9,87.1,85.9L87.1,85.9z"/>
	<path class="st1" d="M94,93.8c0,0.1-0.1,0.2-0.2,0.3c-0.1,0.1-0.2,0.1-0.4,0.1h-1.3l1.4-2.9l-2.9-6.7h1.5c0.1,0,0.2,0,0.3,0.1
		c0.1,0.1,0.1,0.1,0.2,0.2l1.5,3.8c0.1,0.1,0.1,0.2,0.1,0.4c0,0.1,0.1,0.3,0.1,0.4c0.1-0.1,0.1-0.3,0.1-0.4c0.1-0.1,0.1-0.3,0.1-0.4
		l1.5-3.8c0-0.1,0.1-0.2,0.2-0.2c0.1-0.1,0.2-0.1,0.3-0.1h1.4L94,93.8z"/>
	<g>
		<path class="st1" d="M14.5,90.1c0.2,0,0.3,0.1,0.4,0.2s0.2,0.2,0.2,0.4v1h-7v-0.6c0-0.1,0-0.2,0.1-0.4s0.1-0.2,0.2-0.3l3.1-3.1
			c0.3-0.3,0.5-0.5,0.7-0.8c0.2-0.2,0.4-0.5,0.5-0.7c0.1-0.2,0.2-0.5,0.3-0.7c0.1-0.2,0.1-0.5,0.1-0.8c0-0.2,0-0.5-0.1-0.6
			c-0.1-0.2-0.2-0.3-0.3-0.5S12.4,83,12.2,83c-0.2-0.1-0.4-0.1-0.6-0.1c-0.2,0-0.4,0-0.6,0.1c-0.2,0.1-0.3,0.1-0.5,0.2
			s-0.3,0.2-0.3,0.4c-0.1,0.1-0.2,0.3-0.2,0.5c-0.1,0.2-0.2,0.4-0.3,0.4c-0.1,0.1-0.3,0.1-0.5,0l-0.9-0.2c0.1-0.5,0.2-0.9,0.4-1.3
			c0.2-0.4,0.5-0.7,0.8-0.9s0.7-0.4,1-0.6c0.4-0.1,0.8-0.2,1.3-0.2c0.5,0,0.9,0.1,1.3,0.2c0.4,0.1,0.7,0.3,1,0.6s0.5,0.6,0.6,0.9
			c0.2,0.4,0.2,0.8,0.2,1.2c0,0.4-0.1,0.7-0.2,1c-0.1,0.3-0.3,0.6-0.4,0.9c-0.2,0.3-0.4,0.6-0.7,0.8s-0.5,0.5-0.8,0.8l-2.3,2.3
			c0.2-0.1,0.4-0.1,0.7-0.2c0.2,0,0.4-0.1,0.6-0.1H14.5z"/>
		<path class="st1" d="M23.5,86.6c0,0.9-0.1,1.7-0.3,2.3s-0.5,1.2-0.8,1.6c-0.3,0.4-0.7,0.7-1.2,1c-0.5,0.2-1,0.3-1.5,0.3
			c-0.5,0-1-0.1-1.5-0.3c-0.5-0.2-0.8-0.5-1.2-1s-0.6-1-0.8-1.6s-0.3-1.4-0.3-2.3c0-0.9,0.1-1.7,0.3-2.3s0.4-1.2,0.8-1.6
			s0.7-0.7,1.2-1c0.5-0.2,0.9-0.3,1.5-0.3c0.5,0,1,0.1,1.5,0.3c0.5,0.2,0.9,0.5,1.2,1c0.3,0.4,0.6,1,0.8,1.6S23.5,85.7,23.5,86.6z
			 M21.7,86.6c0-0.7-0.1-1.3-0.2-1.8c-0.1-0.5-0.3-0.9-0.4-1.2c-0.2-0.3-0.4-0.5-0.6-0.6s-0.5-0.2-0.7-0.2c-0.2,0-0.5,0.1-0.7,0.2
			c-0.2,0.1-0.4,0.3-0.6,0.6c-0.2,0.3-0.3,0.7-0.4,1.2c-0.1,0.5-0.2,1.1-0.2,1.8c0,0.7,0.1,1.3,0.2,1.8c0.1,0.5,0.2,0.9,0.4,1.2
			c0.2,0.3,0.4,0.5,0.6,0.6c0.2,0.1,0.5,0.2,0.7,0.2c0.3,0,0.5-0.1,0.7-0.2s0.4-0.3,0.6-0.6c0.2-0.3,0.3-0.7,0.4-1.2
			C21.7,88,21.7,87.4,21.7,86.6z"/>
		<path class="st1" d="M31.7,86.6c0,0.9-0.1,1.7-0.3,2.3s-0.5,1.2-0.8,1.6c-0.3,0.4-0.7,0.7-1.2,1c-0.5,0.2-1,0.3-1.5,0.3
			c-0.5,0-1-0.1-1.5-0.3c-0.5-0.2-0.8-0.5-1.2-1s-0.6-1-0.8-1.6s-0.3-1.4-0.3-2.3c0-0.9,0.1-1.7,0.3-2.3s0.4-1.2,0.8-1.6
			s0.7-0.7,1.2-1c0.5-0.2,0.9-0.3,1.5-0.3c0.5,0,1,0.1,1.5,0.3c0.5,0.2,0.9,0.5,1.2,1c0.3,0.4,0.6,1,0.8,1.6S31.7,85.7,31.7,86.6z
			 M29.9,86.6c0-0.7-0.1-1.3-0.2-1.8c-0.1-0.5-0.3-0.9-0.4-1.2c-0.2-0.3-0.4-0.5-0.6-0.6s-0.5-0.2-0.7-0.2c-0.2,0-0.5,0.1-0.7,0.2
			c-0.2,0.1-0.4,0.3-0.6,0.6c-0.2,0.3-0.3,0.7-0.4,1.2c-0.1,0.5-0.2,1.1-0.2,1.8c0,0.7,0.1,1.3,0.2,1.8c0.1,0.5,0.2,0.9,0.4,1.2
			c0.2,0.3,0.4,0.5,0.6,0.6c0.2,0.1,0.5,0.2,0.7,0.2c0.3,0,0.5-0.1,0.7-0.2s0.4-0.3,0.6-0.6c0.2-0.3,0.3-0.7,0.4-1.2
			C29.9,88,29.9,87.4,29.9,86.6z"/>
		<path class="st1" d="M39.9,86.6c0,0.9-0.1,1.7-0.3,2.3s-0.5,1.2-0.8,1.6c-0.3,0.4-0.7,0.7-1.2,1c-0.5,0.2-1,0.3-1.5,0.3
			c-0.5,0-1-0.1-1.5-0.3c-0.5-0.2-0.8-0.5-1.2-1s-0.6-1-0.8-1.6s-0.3-1.4-0.3-2.3c0-0.9,0.1-1.7,0.3-2.3s0.4-1.2,0.8-1.6
			s0.7-0.7,1.2-1c0.5-0.2,0.9-0.3,1.5-0.3c0.5,0,1,0.1,1.5,0.3c0.5,0.2,0.9,0.5,1.2,1c0.3,0.4,0.6,1,0.8,1.6S39.9,85.7,39.9,86.6z
			 M38.1,86.6c0-0.7-0.1-1.3-0.2-1.8c-0.1-0.5-0.3-0.9-0.4-1.2c-0.2-0.3-0.4-0.5-0.6-0.6s-0.5-0.2-0.7-0.2c-0.2,0-0.5,0.1-0.7,0.2
			c-0.2,0.1-0.4,0.3-0.6,0.6c-0.2,0.3-0.3,0.7-0.4,1.2c-0.1,0.5-0.2,1.1-0.2,1.8c0,0.7,0.1,1.3,0.2,1.8c0.1,0.5,0.2,0.9,0.4,1.2
			c0.2,0.3,0.4,0.5,0.6,0.6c0.2,0.1,0.5,0.2,0.7,0.2c0.3,0,0.5-0.1,0.7-0.2s0.4-0.3,0.6-0.6c0.2-0.3,0.3-0.7,0.4-1.2
			C38.1,88,38.1,87.4,38.1,86.6z"/>
		<path class="st1" d="M48.1,86.6c0,0.9-0.1,1.7-0.3,2.3s-0.5,1.2-0.8,1.6c-0.3,0.4-0.7,0.7-1.2,1c-0.5,0.2-1,0.3-1.5,0.3
			c-0.5,0-1-0.1-1.5-0.3c-0.5-0.2-0.8-0.5-1.2-1s-0.6-1-0.8-1.6s-0.3-1.4-0.3-2.3c0-0.9,0.1-1.7,0.3-2.3s0.4-1.2,0.8-1.6
			s0.7-0.7,1.2-1c0.5-0.2,0.9-0.3,1.5-0.3c0.5,0,1,0.1,1.5,0.3c0.5,0.2,0.9,0.5,1.2,1c0.3,0.4,0.6,1,0.8,1.6S48.1,85.7,48.1,86.6z
			 M46.3,86.6c0-0.7-0.1-1.3-0.2-1.8c-0.1-0.5-0.3-0.9-0.4-1.2c-0.2-0.3-0.4-0.5-0.6-0.6s-0.5-0.2-0.7-0.2c-0.2,0-0.5,0.1-0.7,0.2
			c-0.2,0.1-0.4,0.3-0.6,0.6c-0.2,0.3-0.3,0.7-0.4,1.2c-0.1,0.5-0.2,1.1-0.2,1.8c0,0.7,0.1,1.3,0.2,1.8c0.1,0.5,0.2,0.9,0.4,1.2
			c0.2,0.3,0.4,0.5,0.6,0.6c0.2,0.1,0.5,0.2,0.7,0.2c0.3,0,0.5-0.1,0.7-0.2s0.4-0.3,0.6-0.6c0.2-0.3,0.3-0.7,0.4-1.2
			C46.2,88,46.3,87.4,46.3,86.6z"/>
		<path class="st1" d="M56,87.6h-2.7v2.9h-1.4v-2.9h-2.7v-1.3h2.7v-2.9h1.4v2.9H56V87.6z"/>
	</g>
</g>
</svg>
