<?xml version="1.0" encoding="utf-8"?>
<!-- Generator: Adobe Illustrator 24.3.0, SVG Export Plug-In . SVG Version: 6.00 Build 0)  -->
<svg version="1.1" id="Layer_1" xmlns="http://www.w3.org/2000/svg" xmlns:xlink="http://www.w3.org/1999/xlink" x="0px" y="0px"
	 viewBox="0 0 120 112" style="enable-background:new 0 0 120 112;" xml:space="preserve">
<style type="text/css">
	.st0{fill:#646564;}
	.st1{fill:#F70114;}
</style>
<g>
	<g>
		<g>
			<path class="st0" d="M80.935,57.73722H39.24166c-2.94444,0-5.3-2.35555-5.3-5.3V10.685c0-2.94444,2.35556-5.3,5.3-5.3h41.75222
				c2.94444,0,5.3,2.35556,5.3,5.3v41.75222C86.235,55.38167,83.87945,57.73722,80.935,57.73722z M39.24166,7.38722
				c-1.88445,0-3.29778,1.53111-3.29778,3.29778v41.75222c0,1.88445,1.53111,3.29778,3.29778,3.29778h41.75222
				c1.88445,0,3.29778-1.53111,3.29778-3.29778V10.685c0-1.88444-1.53111-3.29778-3.29778-3.29778
				C80.935,7.38722,39.24166,7.38722,39.24166,7.38722z"/>
		</g>
		<g>
			<path class="st0" d="M84.99833,21.52056H35.23722c-0.53,0-1.00111-0.41222-1.00111-1.00111
				c0-0.53,0.41222-1.00111,1.00111-1.00111h49.76111c0.53,0,1.00111,0.41222,1.00111,1.00111
				C85.99944,21.04945,85.52834,21.52056,84.99833,21.52056z"/>
		</g>
		<g>
			<g>
				<circle class="st1" cx="52.07944" cy="13.51167" r="2.53222"/>
			</g>
			<g>
				<circle class="st1" cx="68.09722" cy="13.51167" r="2.53222"/>
			</g>
		</g>
		<g>
			<g>
				<path class="st1" d="M58.49833,36.125H60.265v2.00222c0,0.17667-0.05889,0.35333-0.17667,0.47112
					c-0.11777,0.11777-0.29445,0.23555-0.47111,0.23555h-1.00111v3.88667H55.495v-3.88667h-6.89
					c-0.23556,0-0.41222-0.05889-0.64778-0.17667c-0.17667-0.11777-0.29445-0.29445-0.35333-0.53l-0.41222-1.76667l7.89111-10.54111
					h3.47445L58.49833,36.125L58.49833,36.125z M55.37722,31.70834c0-0.29445,0-0.58889,0.05889-0.88333
					c0-0.29445,0.05889-0.64778,0.11777-1.00111L51.07833,36.125h4.29889V31.70834z"/>
				<path class="st1" d="M72.33722,27.23278c0,0.23556-0.05888,0.47111-0.11777,0.70667
					c-0.11777,0.17667-0.17667,0.41222-0.41222,0.53c-0.11777,0.11778-0.41222,0.23556-0.64777,0.35333
					c-0.29444,0.11778-0.58889,0.11778-1.00111,0.11778H66.095l-0.41222,2.76778c0.35333-0.05889,0.64777-0.11778,0.94222-0.11778
					c0.29444-0.05889,0.58888-0.05889,0.88333-0.05889c0.88333,0,1.64889,0.11778,2.35555,0.41222
					c0.70667,0.29445,1.29556,0.64778,1.70778,1.11889c0.47112,0.47111,0.82445,1.00111,1.06001,1.64889
					c0.23556,0.64777,0.35333,1.29556,0.35333,2.06111c0,0.94222-0.11777,1.76667-0.47112,2.47333
					c-0.35333,0.70666-0.76556,1.41333-1.35445,1.94333c-0.58889,0.53-1.29556,1.00111-2.06111,1.29556
					s-1.64889,0.41222-2.65,0.41222c-0.53,0-1.06-0.05889-1.59-0.17667c-0.47112-0.11777-1.00111-0.29444-1.41333-0.47111
					s-0.82445-0.41222-1.23667-0.70667c-0.41222-0.23556-0.70667-0.53-1.00111-0.82444l1.11889-1.53111
					c0.11777-0.11777,0.23556-0.29445,0.41222-0.35333c0.11777-0.11777,0.35333-0.11777,0.47111-0.11777
					c0.23556,0,0.41222,0.05889,0.64778,0.17667c0.17667,0.11777,0.41222,0.23555,0.70667,0.41222
					c0.23555,0.11777,0.53,0.29445,0.88333,0.41222s0.70667,0.17667,1.23666,0.17667s0.88333-0.11777,1.23666-0.23555
					s0.64778-0.41222,0.82445-0.64778c0.17667-0.29445,0.41222-0.58889,0.47112-1.00111
					c0.11777-0.41222,0.11777-0.76555,0.11777-1.17778c0-0.82444-0.23556-1.47222-0.70667-1.88445
					c-0.47112-0.41222-1.11889-0.64778-2.00222-0.64778c-0.76556,0-1.53111,0.11778-2.23779,0.41222l-2.23778-0.58889l1.47222-8.48
					h8.77444v1.59C72.39611,27.23278,72.33722,27.23278,72.33722,27.23278z"/>
			</g>
			<g>
				<path class="st1" d="M55.37722,48.315c0,0.41222-0.11778,0.82445-0.23556,1.17778
					c-0.11777,0.35333-0.35333,0.70667-0.64778,0.94222c-0.23556,0.23556-0.58889,0.47112-1.00111,0.64778
					c-0.41222,0.11778-0.76556,0.23556-1.29555,0.23556h-2.29667v-5.94778h2.29667c0.41222,0,0.88333,0.11777,1.29555,0.23556
					c0.41222,0.11777,0.70667,0.35333,1.00111,0.64777c0.23556,0.23556,0.47112,0.58889,0.64778,0.94222
					C55.31834,47.49056,55.37722,47.90278,55.37722,48.315z M53.96389,48.315c0-0.29444-0.05889-0.53-0.11778-0.76556
					c-0.11777-0.23556-0.17667-0.41222-0.35333-0.58889c-0.11777-0.11777-0.29445-0.29444-0.53-0.41222
					c-0.17667-0.11777-0.41222-0.11777-0.70667-0.11777h-0.94222v3.82778h0.94222c0.23556,0,0.47111-0.05889,0.70667-0.11777
					c0.17667-0.11778,0.41222-0.17667,0.53-0.41222c0.11778-0.11778,0.23556-0.35333,0.35333-0.58889
					C53.905,48.90389,53.96389,48.60944,53.96389,48.315z"/>
				<path class="st1" d="M61.325,51.25945h-1.06c-0.11778,0-0.17667-0.05889-0.29445-0.11777
					c-0.11778-0.05889-0.11778-0.11778-0.11778-0.17667l-0.41222-1.00111h-2.29667L56.79056,50.965
					c-0.05889,0.11777-0.11778,0.11777-0.11778,0.17667c-0.05889,0.05889-0.17667,0.11777-0.29444,0.11777h-1.06l2.29667-5.88889
					h1.41333L61.325,51.25945z M57.49722,49.02167h1.59l-0.53-1.59c-0.05889-0.11777-0.11778-0.23556-0.11778-0.35333
					c-0.05889-0.11777-0.11777-0.29445-0.11777-0.41222c-0.05889,0.11777-0.11777,0.29445-0.11777,0.41222
					c-0.05889,0.11777-0.11777,0.23556-0.11777,0.35333L57.49722,49.02167z"/>
				<path class="st1" d="M63.91611,49.02167v2.23778h-1.35445v-2.23778l-2.17889-3.65111h1.23667
					c0.11777,0,0.17667,0.05889,0.29444,0.11777c0.05889,0.05889,0.11778,0.11778,0.11778,0.17667l0.82444,1.70778
					c0.05889,0.11777,0.11777,0.23556,0.17667,0.41222c0.05889,0.11777,0.11777,0.23556,0.11777,0.35333
					c0.05889-0.11777,0.11777-0.23556,0.11777-0.35333c0.05889-0.11777,0.11777-0.23556,0.17667-0.41222l0.82445-1.70778
					c0-0.05889,0.05888-0.05889,0.05888-0.11777c0.05889-0.05889,0.05889-0.05889,0.11777-0.11778
					c0.05889-0.05889,0.11777-0.05889,0.11777-0.05889c0.05889,0,0.11778-0.05889,0.11778-0.05889h1.23666L63.91611,49.02167z"/>
				<path class="st1" d="M69.74611,46.60723c-0.05888,0.05889-0.11777,0.11777-0.11777,0.11777
					c-0.05888,0.05889-0.11777,0.05889-0.17667,0.05889s-0.11777,0-0.17667-0.05889s-0.11777-0.11777-0.23556-0.11777
					c-0.11777-0.05889-0.17667-0.11778-0.29445-0.11778c-0.11777-0.05889-0.23555-0.05889-0.41222-0.05889
					c-0.23556,0-0.41222,0.05889-0.58889,0.11777c-0.11777,0.11778-0.17667,0.23556-0.17667,0.41222
					c0,0.11777,0.05888,0.17667,0.11777,0.29444c0.11777,0.11778,0.17667,0.11778,0.29444,0.17667
					c0.11777,0.05889,0.23556,0.11777,0.41222,0.11777c0.11777,0.05889,0.35333,0.11778,0.47112,0.11778
					c0.11777,0.05889,0.35333,0.11777,0.47111,0.17667c0.11777,0.11777,0.29445,0.17667,0.41222,0.29445
					s0.23556,0.29445,0.29444,0.41222c0.11777,0.17667,0.11777,0.41222,0.11777,0.64778c0,0.29445-0.05888,0.53-0.11777,0.76556
					c-0.11777,0.23556-0.23556,0.41222-0.41222,0.64778c-0.17667,0.17667-0.41222,0.29445-0.70667,0.41222
					c-0.23556,0.11777-0.58889,0.11777-0.88334,0.11777c-0.17667,0-0.41222,0-0.53-0.05889
					c-0.17667-0.05889-0.41222-0.11777-0.53-0.11777c-0.17667-0.05889-0.35333-0.11777-0.47112-0.23556
					c-0.11777-0.11777-0.29444-0.17667-0.41222-0.29445l0.41222-0.64777c0.05889-0.05889,0.05889-0.11778,0.11777-0.11778
					c0.05889-0.05889,0.11777-0.05889,0.17667-0.05889c0.11777,0,0.11777,0.05889,0.23555,0.11777
					c0.11778,0.05889,0.17667,0.11778,0.29445,0.11778c0.11777,0.05889,0.23556,0.11777,0.35333,0.11777
					c0.11777,0.05889,0.29444,0.11777,0.47112,0.11777c0.23555,0,0.41222-0.05889,0.58888-0.11777
					c0.11778-0.11777,0.17667-0.29445,0.17667-0.53c0-0.11777-0.05889-0.23555-0.11777-0.35333
					c-0.11778-0.11777-0.17667-0.11777-0.29445-0.17667c-0.11777-0.05889-0.23556-0.11777-0.41222-0.11777
					c-0.11778-0.05889-0.29445-0.11778-0.47112-0.11778c-0.11777-0.05889-0.35333-0.11777-0.47112-0.17667
					c-0.11778-0.0589-0.29444-0.17667-0.41222-0.29445s-0.23556-0.29445-0.29445-0.47111
					c-0.11777-0.17667-0.11777-0.41222-0.11777-0.70667c0-0.23556,0.05889-0.41222,0.11777-0.64778
					c0.11777-0.17667,0.23556-0.41222,0.41222-0.58889c0.17667-0.11777,0.41222-0.29445,0.64777-0.41222
					s0.53-0.11777,0.88333-0.11777c0.17667,0,0.35333,0,0.53001,0.05889c0.17667,0.05889,0.35333,0.05889,0.47111,0.11777
					c0.11778,0.05889,0.29445,0.11777,0.41222,0.17667c0.11777,0.11777,0.23556,0.11777,0.35333,0.23555L69.74611,46.60723z"/>
			</g>
		</g>
	</g>
	<g>
		<path class="st0" d="M23.93056,85.76833h1.29556v1.00111c0,0.11777,0,0.17667-0.05889,0.23555
			c-0.05889,0.05889-0.11778,0.11777-0.23556,0.11777h-0.94222v2.47334h-1.53111v-2.47334h-4.35778
			c-0.11778,0-0.23556-0.05889-0.29445-0.11777c-0.05889-0.05889-0.11778-0.17667-0.17667-0.23555l-0.17667-0.88333l4.82889-6.41889
			h1.64889V85.76833z M22.39944,82.41167c0-0.11777,0-0.29445,0-0.47112s0-0.35334,0.05889-0.53l-3.18,4.41667h3.12111
			C22.39944,85.82723,22.39944,82.41167,22.39944,82.41167z"/>
		<path class="st0" d="M32.41056,80.17389c0,0.23556-0.05889,0.41222-0.23556,0.64778
			c-0.17667,0.17667-0.41222,0.23556-0.82445,0.23556h-2.76778l-0.35333,2.12c0.41222-0.11777,0.88333-0.11777,1.23667-0.11777
			c0.53,0,1.00111,0.05889,1.41333,0.23555c0.41222,0.17667,0.76555,0.35333,1.06,0.70667
			c0.23556,0.29444,0.47111,0.64778,0.58889,1.00111c0.11778,0.35334,0.17667,0.82444,0.17667,1.23667
			c0,0.53-0.11778,1.06001-0.29445,1.47222c-0.17667,0.41222-0.41222,0.82444-0.82444,1.17778
			c-0.41222,0.35334-0.76556,0.53-1.17778,0.76556c-0.41222,0.23555-1.00111,0.23555-1.47222,0.23555
			c-0.29445,0-0.58889-0.05889-0.94222-0.11777c-0.29444-0.05889-0.53-0.11777-0.82445-0.23555
			c-0.23556-0.11777-0.47111-0.23555-0.70667-0.35334c-0.17667-0.11777-0.41222-0.29444-0.53-0.41222l0.53-0.76556
			c0.11778-0.17667,0.23556-0.23556,0.41222-0.23556c0.11778,0,0.23556,0.0589,0.35333,0.11778
			c0.11778,0.05889,0.23556,0.17667,0.41222,0.23555c0.17667,0.05889,0.35333,0.17667,0.53,0.23555
			c0.17667,0.05889,0.47111,0.11777,0.76556,0.11777c0.29444,0,0.64778-0.05889,0.88333-0.17667
			c0.23556-0.11777,0.41222-0.23555,0.58889-0.41222c0.17667-0.17667,0.29445-0.41222,0.35333-0.70667
			c0.05889-0.29444,0.11778-0.52999,0.11778-0.88333c0-0.53-0.17667-1.00111-0.47111-1.29556
			c-0.29445-0.29444-0.82445-0.47111-1.41333-0.47111c-0.47111,0-1.00111,0.05889-1.47222,0.23555l-1.11889-0.29445l0.88333-4.94666
			h5.12333C32.41056,79.40833,32.41056,80.17389,32.41056,80.17389z"/>
		<path class="st0" d="M42.36278,89.59612c-0.23556,0-0.35333-0.11777-0.41222-0.29445l-0.11778-0.70666
			c-0.11778,0.17667-0.29445,0.29444-0.47111,0.41222s-0.35333,0.23555-0.53,0.35334
			c-0.17667,0.11777-0.35333,0.17667-0.64778,0.23555c-0.23556,0.05889-0.41222,0.05889-0.70667,0.05889
			c-0.35333,0-0.76556-0.05889-1.11889-0.23555c-0.29445-0.17667-0.58889-0.41222-0.88333-0.76556
			c-0.23556-0.29445-0.41222-0.70667-0.53-1.17778c-0.11778-0.41222-0.17667-1.00111-0.17667-1.59
			c0-0.53,0.05889-1.06001,0.23556-1.47222c0.17667-0.41222,0.35333-0.88334,0.58889-1.17778
			c0.23555-0.29444,0.58889-0.64778,1.00111-0.82444c0.35333-0.17667,0.82444-0.29445,1.29556-0.29445
			c0.41222,0,0.76556,0.0589,1.06,0.17667s0.53,0.29444,0.76555,0.47111v-3.82777h1.70778v10.42333h-1.06V89.59612z
			 M40.06611,88.30056c0.35333,0,0.70667-0.05889,0.94222-0.23555c0.23556-0.17667,0.47111-0.35334,0.76556-0.64778v-3.23889
			c-0.17667-0.23555-0.41222-0.41222-0.58889-0.47112c-0.23555-0.11777-0.47111-0.11777-0.76555-0.11777
			s-0.47111,0.05889-0.76556,0.11777c-0.17667,0.11778-0.35333,0.23556-0.53,0.41222
			c-0.11778,0.17667-0.23556,0.41222-0.35333,0.76556c-0.05889,0.29445-0.11778,0.70667-0.11778,1.11889
			c0,0.41222,0.05889,0.82444,0.11778,1.06c0.05889,0.29445,0.17667,0.53,0.29444,0.76556
			c0.11778,0.17667,0.29445,0.29445,0.47111,0.35334C39.71278,88.24167,39.83055,88.30056,40.06611,88.30056z"/>
		<path class="st0" d="M50.96056,89.59612h-0.82444c-0.17667,0-0.29445,0-0.35333-0.05889
			c-0.11778-0.05889-0.17667-0.11777-0.17667-0.29445l-0.11777-0.47111c-0.17667,0.17667-0.35333,0.29444-0.53,0.41222
			c-0.17667,0.11777-0.35333,0.23555-0.53,0.29445c-0.17667,0.05889-0.35333,0.11777-0.64778,0.17667
			c-0.23556,0.05889-0.41222,0.05889-0.70667,0.05889S46.485,89.655,46.19056,89.59612
			c-0.23555-0.05889-0.47111-0.17667-0.70667-0.35334c-0.23555-0.17667-0.29444-0.35333-0.41222-0.64778
			C44.9539,88.30055,44.895,88.065,44.895,87.71166c0-0.23555,0.05889-0.53,0.17667-0.82444
			c0.11778-0.23555,0.35333-0.47112,0.76556-0.76556c0.35333-0.23555,0.82444-0.35334,1.35445-0.53
			c0.53-0.17666,1.23666-0.17667,2.06111-0.17667v-0.41222c0-0.47111-0.11777-0.88333-0.29444-1.11888
			c-0.17667-0.23556-0.47112-0.35334-0.88334-0.35334c-0.29445,0-0.47111,0.05889-0.70667,0.11777
			c-0.17667,0.05889-0.35333,0.11777-0.47111,0.23556c-0.11778,0.05889-0.23556,0.17667-0.35333,0.23555
			c-0.11778,0.05889-0.23556,0.11777-0.35333,0.11777c-0.11778,0-0.23556,0-0.29445-0.05889s-0.11777-0.11777-0.17667-0.23555
			l-0.29445-0.53c0.82445-0.76556,1.88445-1.11889,3.00333-1.11889c0.41222,0,0.82444,0.05889,1.11889,0.17667
			c0.29445,0.11777,0.58889,0.29444,0.88334,0.52999c0.23556,0.23556,0.41222,0.53,0.47111,0.88334
			c0.11777,0.35333,0.17667,0.76556,0.17667,1.11888v4.59334L50.96056,89.59612L50.96056,89.59612z M47.60389,88.53611
			c0.17667,0,0.35333,0,0.47112-0.05889c0.11777-0.05889,0.29445-0.05889,0.41222-0.11777s0.23556-0.11777,0.35333-0.23555
			s0.23556-0.17667,0.35333-0.29445v-1.23666c-0.47112,0-0.94222,0.05889-1.29556,0.11777
			c-0.35333,0.05889-0.64778,0.11777-0.82444,0.23555c-0.17667,0.11777-0.35333,0.17667-0.41222,0.35334
			c-0.05889,0.17667-0.11778,0.23555-0.11778,0.41222c0,0.29444,0.05889,0.53,0.23556,0.70667
			C47.07389,88.41833,47.30944,88.53611,47.60389,88.53611z"/>
		<path class="st0" d="M54.965,91.59834c-0.05889,0.11777-0.11777,0.17667-0.17667,0.29444
			c-0.05889,0.11777-0.17667,0.11777-0.35333,0.11777h-1.29556l1.35445-2.88555l-2.88556-6.65444h1.53111
			c0.11777,0,0.23556,0.05889,0.29445,0.11777c0.05889,0.05889,0.11777,0.11777,0.17667,0.23555l1.53111,3.76888
			c0.05889,0.11777,0.11777,0.23556,0.11777,0.35334c0.05889,0.11777,0.05889,0.23555,0.11777,0.35334
			c0.05889-0.11778,0.05889-0.23556,0.11778-0.35334c0.05889-0.11777,0.11777-0.23555,0.11777-0.35334l1.41333-3.71
			c0.05889-0.11777,0.11777-0.17667,0.17667-0.23555c0.05889-0.05889,0.17667-0.05889,0.29445-0.05889h1.35444L54.965,91.59834z"/>
		<path class="st0" d="M64.26945,83.825c-0.05889,0.05889-0.11778,0.11777-0.11778,0.17667
			c-0.05888,0-0.11777,0.05889-0.17667,0.05889s-0.17667,0-0.23555-0.05889c-0.05889-0.05889-0.17667-0.11777-0.29445-0.17667
			c-0.11778-0.0589-0.23556-0.11778-0.41222-0.17667c-0.17667-0.05889-0.35333-0.05889-0.53-0.05889
			c-0.35333,0-0.64778,0.05889-0.82444,0.23555c-0.17667,0.17667-0.29445,0.29445-0.29445,0.53
			c0,0.17667,0.05889,0.29445,0.11777,0.35334c0.11777,0.11777,0.23556,0.17667,0.35333,0.23555
			c0.17667,0.05889,0.35333,0.11777,0.53,0.17667c0.17667,0.05889,0.41222,0.11777,0.64777,0.17667
			c0.23556,0.05889,0.41222,0.17667,0.64778,0.23555c0.17667,0.11777,0.35333,0.23555,0.53,0.35333
			c0.17667,0.11778,0.29445,0.29445,0.35333,0.53c0.11778,0.17667,0.11778,0.41222,0.11778,0.76556
			c0,0.35334-0.05889,0.70667-0.17667,1.00111c-0.11777,0.29444-0.29444,0.52999-0.53,0.76556
			c-0.23556,0.17667-0.53,0.35333-0.94222,0.47111c-0.35333,0.11778-0.76556,0.17667-1.23666,0.17667
			c-0.23556,0-0.47112,0-0.76556-0.05889c-0.23555-0.0589-0.47111-0.11778-0.70666-0.17667
			c-0.17667-0.05889-0.41222-0.17667-0.58889-0.29444c-0.17667-0.11777-0.35333-0.23555-0.47112-0.35334l0.35333-0.70667
			c0.05889-0.05889,0.11778-0.11777,0.17667-0.17667c0.05889-0.05889,0.17667-0.05889,0.23556-0.05889
			c0.11777,0,0.17667,0,0.29445,0.05889c0.11777,0.05889,0.17667,0.11777,0.29444,0.17667
			c0.11778,0.05889,0.23556,0.11777,0.41222,0.17667c0.17667,0.05889,0.35333,0.05889,0.70667,0.05889
			c0.17667,0,0.35333,0,0.53-0.05889c0.17667-0.0589,0.23556-0.11778,0.35333-0.17667s0.17667-0.17667,0.17667-0.29444
			s0.05889-0.17667,0.05889-0.29445c0-0.17667-0.05889-0.29444-0.11778-0.41222c-0.11777-0.11777-0.23555-0.17667-0.35333-0.29445
			c-0.11777-0.11777-0.35333-0.11777-0.53-0.17667c-0.17667-0.05889-0.41222-0.11777-0.70667-0.17667
			c-0.23556-0.05889-0.41222-0.17667-0.70667-0.23555c-0.17667-0.11777-0.41222-0.23556-0.53-0.35334
			c-0.17667-0.11777-0.29444-0.35334-0.35333-0.53c-0.11777-0.23555-0.11777-0.47111-0.11777-0.82444
			c0-0.35332,0.05889-0.52999,0.17667-0.88333c0.11777-0.23555,0.29445-0.47112,0.47111-0.70667
			c0.23556-0.17667,0.47112-0.35334,0.88334-0.47112c0.35333-0.11777,0.76556-0.17667,1.17778-0.17667
			c0.47111,0,0.94222,0.05889,1.35445,0.23555c0.41222,0.17667,0.76556,0.35334,1.06001,0.64778L64.26945,83.825z"/>
		<path class="st0" d="M71.925,82.235c0.53,0,1.06,0.0589,1.47222,0.23556c0.41222,0.17667,0.82444,0.41222,1.11889,0.76556
			c0.29444,0.29444,0.53,0.70667,0.76556,1.17777c0.17667,0.47112,0.23556,1.00111,0.23556,1.53112
			s-0.05889,1.11888-0.23556,1.53111c-0.17667,0.41222-0.41222,0.88333-0.76556,1.17778
			c-0.29445,0.29444-0.70667,0.52999-1.11889,0.76556c-0.41223,0.23556-0.94222,0.23555-1.47222,0.23555
			c-0.53001,0-1.06001-0.05889-1.47223-0.23555c-0.41222-0.17667-0.82444-0.41222-1.11889-0.76556
			c-0.29444-0.29445-0.53-0.76556-0.76556-1.17778c-0.17667-0.41222-0.23556-1.00111-0.23556-1.53111
			s0.05889-1.11889,0.23556-1.53112c0.17667-0.41222,0.41222-0.88333,0.76556-1.17777c0.29445-0.29445,0.70667-0.53,1.11889-0.76556
			C70.865,82.35278,71.395,82.235,71.925,82.235z M71.925,88.35944c0.64777,0,1.06-0.17667,1.35444-0.64778
			c0.29445-0.41222,0.41222-1.00111,0.41222-1.76666c0-0.76556-0.11777-1.35445-0.41222-1.76667
			c-0.29444-0.41222-0.76556-0.64778-1.35444-0.64778c-0.58889,0-1.06001,0.17667-1.35445,0.64778
			c-0.29445,0.41222-0.41222,1.00111-0.41222,1.76667c0,0.76556,0.11777,1.35445,0.41222,1.76666
			C70.865,88.18278,71.33611,88.35944,71.925,88.35944z"/>
		<path class="st0" d="M76.87167,89.59612v-7.24334h1.06001c0.17667,0,0.29444,0.0589,0.35333,0.11778
			c0.05888,0.05889,0.11777,0.17667,0.11777,0.29444l0.11777,0.88333c0.23556-0.41222,0.53-0.82444,0.94222-1.06
			c0.41222-0.23557,0.76556-0.35334,1.17777-0.35334c0.35333,0,0.70667,0.05889,0.88334,0.23555l-0.23556,1.29556
			c0,0.05889-0.05889,0.11777-0.05889,0.17667c-0.05888,0.05889-0.11777,0.05889-0.17667,0.05889s-0.17667,0-0.29444-0.05889
			c-0.11778-0.0589-0.29445-0.0589-0.47112-0.0589c-0.35333,0-0.70667,0.11778-0.94222,0.29445s-0.47112,0.47112-0.70667,0.88333
			v4.53445L76.87167,89.59612L76.87167,89.59612z"/>
		<path class="st0" d="M84.40944,82.35278h1.35445c0.11777,0,0.23556,0,0.29445,0.0589
			c0.05889,0.05889,0.11777,0.11777,0.17667,0.23555l1.06001,3.82777c0.05889,0.17667,0.11777,0.41222,0.11777,0.64778
			c0.05889,0.17667,0.05889,0.41222,0.11777,0.58889c0.05889-0.17667,0.11777-0.41222,0.17667-0.58889
			c0.05889-0.17667,0.11777-0.41222,0.17667-0.64778l1.17778-3.88667c0-0.11777,0.05889-0.17667,0.17667-0.23556
			c0.0589-0.05889,0.17667-0.05889,0.29445-0.05889h0.76556c0.11777,0,0.23555,0,0.29444,0.05889
			c0.0589,0.0589,0.11778,0.11778,0.17667,0.23556l1.17777,3.94555c0.0589,0.17667,0.11778,0.35334,0.17667,0.64778
			c0.05889,0.17667,0.11777,0.35334,0.11777,0.53c0.05889-0.17667,0.05889-0.41222,0.11777-0.58889
			c0.05889-0.17667,0.05889-0.41222,0.11777-0.64778l1.06001-3.82777c0-0.11777,0.05889-0.17667,0.17667-0.23556
			c0.11777-0.05889,0.17667-0.05889,0.29444-0.05889h1.29556l-2.29666,7.24334H91.5939c-0.11777,0-0.23555-0.11777-0.29444-0.29445
			l-1.29556-4.18111c-0.05889-0.11777-0.05889-0.23555-0.11777-0.41222c-0.05888-0.17667-0.0589-0.23556-0.0589-0.41222
			c0,0.11777-0.05889,0.29445-0.05889,0.41222c-0.05889,0.11777-0.05889,0.23555-0.11777,0.41222l-1.29556,4.12222
			c-0.05889,0.17667-0.17667,0.29445-0.35333,0.29445h-1.35445L84.40944,82.35278z"/>
		<path class="st0" d="M99.42611,82.235c0.41222,0,0.88333,0.0589,1.23667,0.23556c0.35333,0.17666,0.76556,0.35333,1.00111,0.58888
			c0.23555,0.23556,0.47112,0.64778,0.64778,1.06001c0.11777,0.41222,0.23555,0.88333,0.23555,1.35445
			c0,0.11777,0,0.23555,0,0.29444c0,0.0589-0.05889,0.17667-0.05889,0.17667c0,0.05889-0.05889,0.05889-0.11777,0.11777
			c-0.05889,0-0.11777,0.05889-0.17667,0.05889h-4.47556c0.05889,0.76556,0.23556,1.29556,0.64778,1.59
			c0.35334,0.35334,0.82444,0.47112,1.35445,0.47112c0.29445,0,0.47112-0.05889,0.76556-0.11777
			c0.17667-0.05889,0.35334-0.11777,0.53-0.23555c0.11777-0.0589,0.29445-0.11778,0.35334-0.23556
			c0.11777-0.05889,0.23555-0.11777,0.29444-0.11777s0.11777,0,0.17667,0.05889c0.0589,0,0.11778,0.05889,0.11778,0.11777
			l0.47111,0.58889c-0.17667,0.23556-0.41222,0.41222-0.64778,0.53c-0.23555,0.11777-0.47111,0.23555-0.76556,0.35334
			c-0.23555,0.05889-0.53,0.17667-0.82444,0.17667c-0.23555,0.05889-0.53,0.05889-0.82444,0.05889
			c-0.47112,0-1.00111-0.05889-1.41333-0.23555c-0.41222-0.17667-0.82444-0.41222-1.11889-0.76556
			c-0.29444-0.29445-0.52999-0.76556-0.76556-1.23667c-0.17667-0.47112-0.23555-1.06001-0.23555-1.6489
			c0-0.47111,0.05889-0.94222,0.23555-1.35445c0.17667-0.41222,0.35334-0.82444,0.70667-1.11888
			c0.29445-0.29445,0.70667-0.53,1.11889-0.76556C98.48389,82.35278,98.89611,82.235,99.42611,82.235z M99.485,83.53056
			c-0.47112,0-0.94222,0.11777-1.17778,0.41222c-0.29444,0.29444-0.47111,0.70667-0.52999,1.23667h3.29778
			c0-0.23556,0-0.41222-0.05889-0.64778c-0.05889-0.17667-0.17667-0.35334-0.29444-0.47112s-0.29445-0.23555-0.47112-0.35334
			C100.015,83.58945,99.77944,83.53056,99.485,83.53056z"/>
		<path class="st0" d="M22.105,107.91055v-9.59889h1.06c0.11778,0,0.17667,0,0.29445,0.05889
			c0.05889,0.0589,0.11778,0.11778,0.17667,0.23556l0.11778,0.70667c0.29445-0.29445,0.58889-0.64778,1.00111-0.82444
			c0.35333-0.17667,0.82444-0.29445,1.29556-0.29445c0.35333,0,0.76555,0.05889,1.06,0.23555
			c0.29445,0.17667,0.64778,0.41222,0.88333,0.76556c0.23556,0.29444,0.41222,0.70666,0.53,1.17777
			c0.11778,0.41222,0.17667,1.00111,0.17667,1.53111c0,0.53001-0.05889,1.06001-0.23556,1.47223
			c-0.11778,0.41222-0.35333,0.88333-0.58889,1.17777c-0.23556,0.29445-0.58889,0.58889-1.00111,0.82444
			c-0.35333,0.17667-0.82445,0.29445-1.29556,0.29445c-0.41222,0-0.76555-0.05889-1.06-0.17667
			c-0.29444-0.11778-0.53-0.29445-0.76555-0.47112v2.94444H22.105C22.105,107.96944,22.105,107.91055,22.105,107.91055z
			 M25.46167,99.54833c-0.35333,0-0.70667,0.05889-0.94222,0.23555c-0.23555,0.11777-0.47111,0.35334-0.76555,0.64778v3.23889
			c0.17667,0.23555,0.41222,0.41222,0.64778,0.47112c0.23556,0.11777,0.47111,0.11777,0.76556,0.11777
			c0.29444,0,0.47111-0.05889,0.76556-0.11777c0.17667-0.11777,0.35333-0.23556,0.53-0.41222
			c0.11778-0.17667,0.23556-0.41222,0.35333-0.76556c0.05889-0.29444,0.11778-0.70667,0.11778-1.11889
			c0-0.41222-0.05889-0.82444-0.11778-1.06c-0.05889-0.23555-0.17667-0.53-0.29445-0.76556
			c-0.11778-0.17667-0.29445-0.29445-0.41222-0.35334C25.87389,99.60722,25.69722,99.54833,25.46167,99.54833z"/>
		<path class="st0" d="M35.70833,105.555h-0.82444c-0.17667,0-0.29445,0-0.35333-0.05889
			c-0.11778-0.0589-0.17667-0.11778-0.17667-0.29445l-0.11778-0.47112c-0.17667,0.17667-0.35333,0.29445-0.53,0.41222
			c-0.17666,0.11777-0.35333,0.23555-0.53,0.29444c-0.17667,0.0589-0.35333,0.11777-0.58889,0.17667
			c-0.23555,0.05889-0.41222,0.05889-0.70667,0.05889c-0.29444,0-0.58889-0.05889-0.88333-0.11777
			c-0.29444-0.05888-0.47111-0.17667-0.70667-0.35334c-0.23556-0.17667-0.29444-0.35333-0.41222-0.58889
			c-0.11778-0.23555-0.17667-0.52999-0.17667-0.88333c0-0.23555,0.05889-0.53,0.17667-0.82444
			c0.11778-0.23555,0.35333-0.47112,0.76555-0.76556c0.35333-0.23556,0.82445-0.35334,1.35444-0.53
			c0.53-0.17667,1.23666-0.17667,2.06111-0.17667v-0.41222c0-0.47112-0.11778-0.88333-0.29445-1.11888
			c-0.17667-0.23556-0.47111-0.35334-0.88333-0.35334c-0.29445,0-0.47111,0.05889-0.70667,0.11777
			c-0.17667,0.05889-0.35333,0.11777-0.47111,0.23555c-0.11778,0.0589-0.23556,0.17667-0.35333,0.23556
			c-0.11778,0.05889-0.23556,0.11777-0.35333,0.11777c-0.11777,0-0.23556,0-0.29444-0.05889
			c-0.05889-0.05889-0.11778-0.11777-0.17667-0.23556l-0.29445-0.52999c0.82445-0.76556,1.88444-1.11889,3.00333-1.11889
			c0.41222,0,0.82444,0.05889,1.11889,0.17667c0.29445,0.11777,0.64778,0.29444,0.88334,0.52999s0.41222,0.53,0.47111,0.88333
			c0.11778,0.35334,0.17667,0.76556,0.17667,1.11889v4.59334h-0.17667C35.70833,105.61388,35.70833,105.555,35.70833,105.555z
			 M32.29278,104.43611c0.17667,0,0.35333,0,0.47111-0.05889s0.29445-0.05889,0.41222-0.11777
			c0.11777-0.05889,0.23555-0.11777,0.35333-0.23555c0.11777-0.11778,0.23555-0.17667,0.35333-0.29445v-1.23667
			c-0.47111,0-0.94222,0.05889-1.29556,0.11777c-0.35333,0.0589-0.58889,0.11778-0.82444,0.23556
			c-0.17667,0.11777-0.35333,0.17667-0.41222,0.35333c-0.05889,0.17667-0.11778,0.23556-0.11778,0.41222
			c0,0.29444,0.05889,0.53,0.23556,0.70667C31.82167,104.37722,32.05722,104.43611,32.29278,104.43611z"/>
		<path class="st0" d="M39.71278,107.49833c-0.05889,0.11778-0.11778,0.17667-0.17667,0.29445s-0.17667,0.11777-0.35333,0.11777
			h-1.29556l1.35444-2.88555l-2.88556-6.65445h1.53111c0.11778,0,0.23556,0.0589,0.29445,0.11778
			c0.05889,0.05889,0.11778,0.11777,0.17667,0.23555l1.53111,3.76888c0.05889,0.11777,0.11777,0.23555,0.11777,0.35334
			c0.05889,0.11777,0.05889,0.23555,0.11778,0.35333c0.05889-0.11777,0.05889-0.23555,0.11778-0.35333
			c0.05889-0.11777,0.11778-0.23556,0.11778-0.35334l1.41333-3.71c0.05889-0.11777,0.11778-0.17667,0.17667-0.23555
			c0.05889-0.0589,0.17667-0.0589,0.29445-0.0589h1.41333L39.71278,107.49833z"/>
		<path class="st0" d="M49.95944,107.49833c-0.05889,0.11778-0.11777,0.17667-0.17667,0.29445
			c-0.05889,0.11777-0.17667,0.11777-0.35333,0.11777h-1.29555l1.35445-2.88555l-2.88556-6.65445h1.53111
			c0.11777,0,0.23556,0.0589,0.29445,0.11778c0.05889,0.05889,0.11777,0.11777,0.17667,0.23555l1.53111,3.76888
			c0.05889,0.11777,0.11777,0.23555,0.11777,0.35334c0.05889,0.11777,0.05889,0.23555,0.11777,0.35333
			c0.05889-0.11777,0.05889-0.23555,0.11777-0.35333c0.05889-0.11777,0.11778-0.23556,0.11778-0.35334l1.41333-3.71
			c0.05889-0.11777,0.11777-0.17667,0.17667-0.23555c0.05889-0.0589,0.17667-0.0589,0.29445-0.0589h1.41333L49.95944,107.49833z"/>
		<path class="st0" d="M57.79167,98.19389c0.53,0,1.06,0.05889,1.47222,0.23555c0.41222,0.17667,0.82444,0.41222,1.11889,0.76556
			c0.29445,0.29444,0.53,0.70666,0.76556,1.17777c0.17667,0.47112,0.23556,1.00111,0.23556,1.53111
			c0,0.53001-0.05889,1.11889-0.23556,1.53112c-0.17667,0.41222-0.41222,0.88333-0.76556,1.17777
			c-0.29445,0.29445-0.70667,0.53-1.11889,0.76556c-0.41222,0.17667-0.94222,0.23555-1.47222,0.23555
			c-0.53,0-1.06001-0.05889-1.47223-0.23555c-0.41222-0.17667-0.82444-0.41222-1.11889-0.76556
			c-0.29445-0.29444-0.53-0.76556-0.76556-1.17777c-0.17667-0.41222-0.23556-1.00111-0.23556-1.53112
			c0-0.53,0.05889-1.11888,0.23556-1.53111c0.17667-0.41222,0.41222-0.88333,0.76556-1.17777
			c0.29445-0.29445,0.70667-0.53,1.11889-0.76556C56.73166,98.25278,57.20278,98.19389,57.79167,98.19389z M57.79167,104.31834
			c0.58889,0,1.06-0.17667,1.35444-0.64778c0.29445-0.41222,0.41222-1.00111,0.41222-1.76667
			c0-0.82444-0.11778-1.35445-0.41222-1.76666c-0.29444-0.41222-0.76556-0.64778-1.35444-0.64778
			c-0.64778,0-1.06001,0.17667-1.35445,0.64778c-0.29445,0.41222-0.41222,1.00111-0.41222,1.76666
			c0,0.82445,0.11778,1.35445,0.41222,1.76667C56.73166,104.08278,57.14389,104.31834,57.79167,104.31834z"/>
		<path class="st0" d="M64.26945,98.31167v4.59334c0,0.41222,0.11777,0.82444,0.29444,1.06001
			c0.17667,0.23555,0.47112,0.35333,0.94222,0.35333c0.29444,0,0.53-0.05889,0.88333-0.17667
			c0.23556-0.11777,0.47112-0.29445,0.76556-0.53v-5.2411h1.70778v7.24333h-1.06c-0.23556,0-0.35333-0.11777-0.41222-0.29444
			l-0.11777-0.53c-0.11777,0.11777-0.29444,0.29444-0.47112,0.41222c-0.17667,0.11777-0.29444,0.23555-0.47111,0.29444
			c-0.17667,0.05889-0.35333,0.17667-0.53001,0.17667c-0.17667,0.05889-0.41222,0.05889-0.70667,0.05889
			c-0.35333,0-0.76556-0.05889-1.06-0.17667c-0.29445-0.11777-0.53-0.29444-0.76556-0.52999
			c-0.17667-0.23556-0.35333-0.53-0.47111-0.88334c-0.11778-0.29444-0.17667-0.70667-0.17667-1.11888v-4.59334h1.70778V98.3117
			h-0.05888V98.31167z"/>
		<path class="st0" d="M73.39722,105.555v-7.24334h1.06c0.17667,0,0.29445,0.05889,0.35333,0.11777
			c0.05889,0.0589,0.11777,0.17667,0.11777,0.29445l0.11777,0.88333c0.23556-0.41222,0.53001-0.82444,0.94222-1.06
			c0.35333-0.23556,0.76556-0.35334,1.17778-0.35334c0.35333,0,0.70667,0.05889,0.88333,0.23555l-0.23556,1.29556
			c0,0.05889-0.05888,0.11777-0.05888,0.17667c-0.05889,0.05889-0.11777,0.05889-0.17667,0.05889s-0.17667,0-0.29445-0.05889
			s-0.29444-0.05889-0.47112-0.05889c-0.35333,0-0.70667,0.11777-0.94221,0.29445c-0.23556,0.17667-0.47112,0.47111-0.70667,0.88333
			v4.53444L73.39722,105.555L73.39722,105.555z"/>
		<path class="st0" d="M82.11278,98.19389c0.41222,0,0.88333,0.05889,1.23667,0.23555
			c0.35334,0.17667,0.76556,0.35334,1.00111,0.64778c0.23556,0.23556,0.47112,0.64778,0.64778,1.06001
			c0.11778,0.41222,0.23556,0.88333,0.23556,1.35445c0,0.11777,0,0.23555,0,0.29444s-0.05889,0.17667-0.05889,0.17667
			c0,0.05889-0.0589,0.05889-0.11778,0.11777c-0.05889,0-0.11777,0.05889-0.17667,0.05889H80.405
			c0.05889,0.76556,0.23556,1.29556,0.58889,1.59c0.35333,0.35334,0.82445,0.47112,1.35445,0.47112
			c0.29445,0,0.47111-0.05889,0.76556-0.11777c0.17667-0.05889,0.35333-0.11777,0.52999-0.23556
			c0.11777-0.05889,0.29445-0.11777,0.35334-0.23555c0.11777-0.05889,0.23555-0.11777,0.29444-0.11777s0.11777,0,0.17667,0.05889
			c0.05889,0,0.11777,0.05889,0.11777,0.11777l0.47111,0.64778c-0.17667,0.23556-0.41222,0.41222-0.64778,0.53
			c-0.23555,0.11777-0.47111,0.23555-0.76556,0.35334c-0.23555,0.05889-0.52999,0.17667-0.82444,0.17667
			c-0.23555,0.05889-0.53,0.05889-0.82445,0.05889c-0.47111,0-1.00111-0.05889-1.41333-0.23555
			c-0.41222-0.17667-0.82445-0.41222-1.11889-0.76556c-0.29445-0.35334-0.53001-0.76556-0.76556-1.23667
			c-0.17667-0.47112-0.23556-1.06001-0.23556-1.6489c0-0.47111,0.05888-0.94222,0.23556-1.35445
			c0.17667-0.41222,0.35333-0.82444,0.70667-1.11888c0.29444-0.29445,0.70667-0.53,1.11889-0.76556
			C81.17056,98.31167,81.64166,98.19389,82.11278,98.19389z M82.17167,99.43056c-0.47112,0-0.94222,0.11777-1.17778,0.41222
			c-0.29444,0.29444-0.47112,0.70666-0.53,1.23666h3.29778c0-0.23555,0-0.41222-0.0589-0.58888
			c-0.05889-0.17667-0.17667-0.35334-0.29444-0.47112s-0.29444-0.23555-0.47112-0.35334
			C82.70167,99.48945,82.46611,99.43056,82.17167,99.43056z"/>
		<path class="st0" d="M86.70612,105.555v-7.24334h1.06c0.23556,0,0.35334,0.11777,0.41222,0.29445l0.11777,0.52999
			c0.11777-0.11777,0.29444-0.29444,0.41222-0.41222c0.17667-0.11777,0.29444-0.23555,0.47111-0.29445
			c0.17667-0.05889,0.35334-0.17667,0.53-0.17667s0.41222-0.05889,0.70667-0.05889c0.35334,0,0.76556,0.05889,1.06001,0.17667
			c0.29444,0.11777,0.52999,0.29445,0.76556,0.53c0.17667,0.23555,0.35333,0.53,0.47111,0.88333
			c0.11777,0.29445,0.17667,0.70667,0.17667,1.11889v4.59333h-1.70778v-4.59333c0-0.41222-0.11777-0.82444-0.29444-1.06001
			c-0.17667-0.23556-0.47112-0.35333-0.94223-0.35333c-0.29444,0-0.52999,0.05889-0.88333,0.17667
			c-0.23555,0.11777-0.47112,0.29444-0.76556,0.53v5.2411h-1.64889v0.11777h0.05889V105.555z"/>
		<path class="st0" d="M97.07056,105.67278c-0.58889,0-1.11889-0.17667-1.41333-0.53
			c-0.29445-0.35333-0.47112-0.88333-0.47112-1.47222v-4.00445h-0.76556c-0.11777,0-0.17667,0-0.23556-0.05889
			c-0.05889-0.05889-0.11777-0.11777-0.11777-0.23555v-0.76556l1.17778-0.17667l0.35334-2.00222
			c0-0.11777,0.05889-0.17667,0.11777-0.23556c0.05889-0.05889,0.11777-0.05889,0.23555-0.05889h0.94222v2.29667h1.94334v1.23666
			h-1.94334v3.88667c0,0.23555,0.0589,0.35334,0.17667,0.53c0.11777,0.11777,0.23555,0.17667,0.41222,0.17667
			c0.11777,0,0.17667,0,0.23556-0.05889c0.05889,0,0.11777-0.05889,0.17667-0.05889s0.11777-0.05889,0.11777-0.05889
			c0.05889,0,0.05889-0.0589,0.11777-0.0589s0.11777,0,0.11777,0.0589c0.05889,0,0.05889,0.05889,0.11777,0.11777l0.47112,0.88333
			c-0.23555,0.17667-0.53,0.35334-0.88333,0.47112C97.77721,105.61389,97.42389,105.67278,97.07056,105.67278z"/>
	</g>
</g>
</svg>
